<?xml version="1.0" encoding="UTF-8"?>
<svg xmlns="http://www.w3.org/2000/svg" id="Layer_1" data-name="Layer 1" viewBox="0 0 180 216">
   <style>.sprite{display:none}.sprite:target{display:inline}</style>
   <defs>
      <g class="sprite" id="kiux" fill="#fff">
         <path d="M15 37h-4V18h4v6l5-7h4l-7 10 7 10h-4l-5-7zM29 37h-3V18h3zM41 18v15h-6V18h-3v17c0 1 0 2 1 2h10s1-1 1-2V18h-3zM59 18l-4-1-3 6-2-6-4 1 4 9-4 10h4l2-5 3 5h4l-5-10z" />
      </g>
      <g class="sprite" id="btn-editar">
         <title>Editar</title>
         <path fill="none" d="M0 0h180v216H0z" />
         <rect fill="#003D5C" x="13" y="68" width="154" height="110" rx="15" ry="16" />
         <rect fill="#fff" x="24" y="80" width="130.222" height="86.593" rx="5" ry="6" />
         <path fill="#006094" d="M35 98h109.735v6.982H35zM35 120h109.735v6.982H35zM35 141h109.735v6.982H35z" />
         <path fill="#fff" d="M74 158l91-91-41-41-91 91c-12 11-12 30 0 41 11 11 30 11 41 0z" />
         <path fill="#003D5C" d="M74 143l90-91c4-4 4-10 0-14l-12-12c-3-3-9-3-13 0l-91 91 26 26z" />
         <path fill="#003D5C" d="M48 117c-4 9-10 20-12 26-4 9 3 16 12 12 6-2 17-8 26-12l-26-26z" />
         <path fill="#fff" d="M68 137c-22 12-23 12-25 10-2-1-1-2 11-24l14 14zM157 52l4-3c2-2 2-5 0-7l-12-12c-2-2-5-2-7 0l-4 4 19 18z" />
      </g>
      <g class="sprite" id="btn-multiselect">
         <path fill="none" d="M0 0h180v216H0z" />
         <path fill="#fff" d="M87 50h50.265v10.8H87zM87 115h50.265v10.8H87zM87 180h50.265v10.8H87zM87 25h72.518v10.8H87zM87 90h72.518v10.8H87zM87 155h72.518v10.8H87zM75 43V21c0-3-2-5-5-5H26c-3 0-6 2-6 5v22h14v-9c0-2 2-4 5-4h17c3 0 5 2 5 4v9h14zM75 108V86c0-3-2-5-5-5H26c-3 0-6 2-6 5v22h14v-9c0-2 2-5 5-5h17c3 0 5 3 5 5v9h14zM75 173v-22c0-3-2-6-5-6H26c-3 0-6 3-6 6v22h14v-9c0-3 2-5 5-5h17c3 0 5 2 5 5v9h14zM75 43v22c0 3-2 6-5 6H26c-3 0-6-3-6-6V43h14v9c0 3 2 5 5 5h17c3 0 5-2 5-5v-9h14zM75 108v22c0 3-2 5-5 5H26c-3 0-6-2-6-5v-22h14v9c0 2 2 5 5 5h17c3 0 5-3 5-5v-9h14zM75 173v22c0 3-2 5-5 5H26c-3 0-6-2-6-5v-22h14v9c0 2 2 4 5 4h17c3 0 5-2 5-4v-9h14z" />
      </g>
      <g class="sprite" id="zoom-out">
         <path fill="none" d="M0 0h180v216H0z" />
         <path fill="#003d5c" d="M67 102h45.06v11.28H67z" />
         <path d="M90 46a62 62 0 1 0 62 62 62.31 62.31 0 0 0-62-62zm0 112a50 50 0 0 1 0-100 50 50 0 0 1 0 100z" fill="#003d5c" />
      </g>
      <g class="sprite" id="zoom-in">
         <path fill="none" d="M0 0h180v216H0z" />
         <path fill="#003d5c" d="M67 102h45.06v11.28H67z" />
         <path fill="#003d5c" d="M84.36 85.47h11.28v45.06H84.36z" />
         <path d="M90 46a62 62 0 1 0 62 62 62.31 62.31 0 0 0-62-62zm0 112a50 50 0 0 1 0-100 50 50 0 0 1 0 100z" fill="#003d5c" />
      </g>
      <g class="sprite" id="btn-izq">
         <path fill="none" d="M0 0h180v216H0z" />
         <path fill="#fff" d="M17 92c-5 3-9 9-9 16s4 13 9 16c40 22 79 45 119 68 5 3 12 3 18 0 5-3 9-10 9-16V40c0-6-4-13-9-16-6-3-13-3-18 0C96 47 57 70 17 92z" />
      </g>
      <g class="sprite" id="btn-der">
         <path fill="none" d="M0 0h180v216H0z" />
         <path fill="#fff" d="M163 92c5 3 9 9 9 16s-4 13-9 16c-40 22-79 45-119 68-5 3-12 3-18 0-5-3-9-10-9-16V40c0-6 4-13 9-16 6-3 13-3 18 0 40 23 79 46 119 68z" />
      </g>
      <g class="sprite" id="hb-1000">
         <path fill="none" d="M0 216h180V0H0z" />
      </g>
      <g class="sprite" id="hb-1001">
         <path fill="#99CCFE" d="M10 206h150v-19H10z" />
         <path fill="#5AADFF" d="M10 187h150v19H10v-19zm160 29v-39H0v39h170z" />
         <path fill="none" d="M170 216h10V0H0v177h170z" />
      </g>
      <g class="sprite" id="hb-1002">
         <path fill="#99CCFE" d="M10 206h150v-19H10z" />
         <path fill="#5AADFF" d="M10 187h150v19H10v-19zm160 29v-39H0v39h170z" />
         <path fill="none" d="M170 216h10V0H0v177h170z" />
      </g>
      <g class="sprite" id="hb-1004">
         <path fill="#99CCFE" d="M10 206h150v-19H10zM10 177h150v-20H10z" />
         <path fill="#5AADFF" d="M10 187h150v19H10v-19zm0-30h150v20H10v-20zm160 59v-69H0v69h170z" />
         <path fill="none" d="M170 216h10V0H0v147h170z" />
      </g>
      <g class="sprite" id="hb-1006">
         <path fill="#99CCFE" d="M10 206h150v-19H10zM10 147h150v-19H10zM10 177h150v-20H10z" />
         <path fill="#5AADFF" d="M10 187h150v19H10v-19zm0-30h150v20H10v-20zm0-29h150v19H10v-19zm160 88v-98H0v98h170z" />
         <path fill="none" d="M170 216h10V0H0v118h170z" />
      </g>
      <g class="sprite" id="hb-1008">
         <path fill="#99CCFE" d="M10 206h150v-19H10zM10 177h150v-20H10zM10 147h150v-19H10zM10 118h150V98H10z" />
         <path fill="#5AADFF" d="M10 187h150v19H10v-19zm0-30h150v20H10v-20zm0-29h150v19H10v-19zm0-30h150v20H10V98zm160 118V88H0v128h170z" />
         <path fill="none" d="M170 216h10V0H0v88h170z" />
      </g>
      <g class="sprite" id="hb-1010">
         <path fill="#99CCFE" d="M10 206h150v-19H10zM10 88h150V69H10zM10 147h150v-19H10zM10 177h150v-20H10zM10 118h150V98H10z" />
         <path fill="#5AADFF" d="M10 187h150v19H10v-19zm0-30h150v20H10v-20zm0-29h150v19H10v-19zm0-30h150v20H10V98zm0-29h150v19H10V69zm160 147V59H0v157h170z" />
         <path fill="none" d="M170 216h10V0H0v59h170z" />
      </g>
      <g class="sprite" id="hb-1012">
         <path fill="#99CCFE" d="M10 206h150v-19H10zM10 88h150V69H10zM10 147h150v-19H10zM10 177h150v-20H10zM10 118h150V98H10z" />
         <path fill="#5AADFF" d="M10 187h150v19H10v-19zm0-30h150v20H10v-20zm0-29h150v19H10v-19zm0-30h150v20H10V98zm0-29h150v19H10V69zm160 147V59H0v157h170z" />
         <path fill="none" d="M170 216h10V0H0v59h170z" />
         <circle fill="#fff" cx="85" cy="137" r="16" />
      </g>
      <g class="sprite" id="hb-1100">
         <path fill="none" d="M0 0h180v216H0z" />
         <circle fill="#CF0000" cx="85" cy="143" r="37" />
      </g>
      <g class="sprite" id="hb-1101">
         <path fill="none" d="M170 216h10V0H0v177h170z" />
         <path fill="#B00" d="M10 187h150v19H10v-19zm160 29v-39H0v39h170z" />
         <path fill="#FB0000" d="M10 206h150v-19H10z" />
      </g>
      <g class="sprite" id="hb-1102">
         <path fill="#0093D9" d="M10 206h150v-19H10z" />
         <path fill="#069" d="M10 187h150v19H10v-19zm160 29v-39H0v39h170z" />
         <path fill="none" d="M170 216h10V0H0v177h170z" />
      </g>
      <g class="sprite" id="hb-1104">
         <path fill="#0093D9" d="M10 206h150v-19H10zM10 177h150v-20H10z" />
         <path fill="#069" d="M10 187h150v19H10v-19zm0-30h150v20H10v-20zm160 59v-69H0v69h170z" />
         <path fill="none" d="M170 216h10V0H0v147h170z" />
      </g>
      <g class="sprite" id="hb-1106">
         <path fill="#0093D9" d="M10 206h150v-19H10zM10 147h150v-19H10zM10 177h150v-20H10z" />
         <path fill="#069" d="M10 187h150v19H10v-19zm0-30h150v20H10v-20zm0-29h150v19H10v-19zm160 88v-98H0v98h170z" />
         <path fill="none" d="M170 216h10V0H0v118h170z" />
      </g>
      <g class="sprite" id="hb-1108">
         <path fill="#0093D9" d="M10 206h150v-19H10zM10 177h150v-20H10zM10 147h150v-19H10zM10 118h150V98H10z" />
         <path fill="#069" d="M10 187h150v19H10v-19zm0-30h150v20H10v-20zm0-29h150v19H10v-19zm0-30h150v20H10V98zm160 118V88H0v128h170z" />
         <path fill="none" d="M170 216h10V0H0v88h170z" />
      </g>
      <g class="sprite" id="hb-1110">
         <path fill="#0093D9" d="M10 206h150v-19H10zM10 88h150V69H10zM10 147h150v-19H10zM10 177h150v-20H10zM10 118h150V98H10z" />
         <path fill="#069" d="M10 187h150v19H10v-19zm0-30h150v20H10v-20zm0-29h150v19H10v-19zm0-30h150v20H10V98zm0-29h150v19H10V69zm160 147V59H0v157h170z" />
         <path fill="none" d="M170 216h10V0H0v59h170z" />
      </g>
      <g class="sprite" id="hb-1112">
         <path fill="#0093D9" d="M10 206h150v-19H10zM10 88h150V69H10zM10 147h150v-19H10zM10 177h150v-20H10zM10 118h150V98H10z" />
         <path fill="#069" d="M10 187h150v19H10v-19zm0-30h150v20H10v-20zm0-29h150v19H10v-19zm0-30h150v20H10V98zm0-29h150v19H10V69zm160 147V59H0v157h170z" />
         <path fill="none" d="M170 216h10V0H0v59h170z" />
         <circle fill="#fff" cx="85" cy="137" r="16" />
      </g>
      <g class="sprite" id="hb-1200">
         <path fill="none" d="M0 0h180v216H0z" />
         <path d="M83 78C73 59 51 47 29 61l16 5c-16 2-34 11-32 29 8-13 21-14 34-16-1 2-2 4-3 8 7 0 18-1 26 3-39 4-49 1-52 43 8-14 19-19 30-23l-4 16c11-11 22-19 30-22-14 18-31 41-42 64-3 8-5 9-7 18-2 5-11 19-14 30h23c3-13-1-9 7-31 1-4 2-9 5-15 2-5 4-9 7-14 2-4 4-8 7-13 2-4 21-36 21-36l-8 30c6-1 8-2 10-2-4 18 1 24-7 34 20-3 26-41 22-60 5 11 9 17 8 30l8-9c4 6 11 19-1 38 25-8 17-36 13-46 5 6 16 13 19 19 2-16-6-32-34-45 17 0 27 8 38 15-5-17-22-24-33-27 10-3 20-5 30 0-20-24-36-11-48-2 8-17 11-29-11-37 4 5 7 7 7 16-10-7-16-12-31-13 9 8 25 21 20 30z" />
         <path fill="#963" d="M79 105l-4-2v1c-14 18-31 41-41 64-3 8-6 9-8 18-2 5-10 19-13 30h17c3-13 0-9 7-31 2-4 2-9 5-15 3-5 5-9 7-14 3-4 5-8 8-13 2-3 20-35 22-38z" />
         <path fill="#093" d="M91 80C81 61 59 49 37 63l15 5c-15 2-33 11-31 29 8-13 20-14 34-16-1 2-2 4-3 8 7 0 18-1 26 3-40 4-49 1-52 43 8-14 19-19 30-23l-4 16c11-11 22-19 30-22 0 8 7 3 7 3l-8 30c6-1 8-2 10-2-5 18 1 24-7 34 20-3 26-41 21-60 6 11 10 17 9 31l8-10c4 6 11 20-1 38 25-8 16-36 13-46 5 6 16 13 18 19 3-16-5-32-33-45 17 0 27 8 38 15-5-17-22-24-33-27 10-3 20-5 30 0-20-24-36-11-48-2 8-17 11-29-11-37 4 5 7 7 6 16-9-7-15-12-30-13 9 8 25 21 20 30z" />
      </g>
      <g class="sprite" id="hb-1300">
         <path fill="#7E7E7E" d="M140 108h10V59h-10zM120 79V69h-10v10zM100 79V69H90v10zM50 88v-9H40v9zM70 88v-9H60v9zM20 137v-9H10v9zM100 59V49H90v10zM170 128v-10h-10v10zM150 128v-10h-10v10zM10 128v-10H0v10zM50 108V98H40v10zM80 59V49H70v10zM170 137h-10v10h10zM10 137H0v10h10zM70 69V59H60v10zM160 137v-9h-10v9zM90 69V59H80v10zM60 79V69H50v10zM80 79V69H70v10zM110 88v-9h-10v9zM30 128v-10H20v10zM130 79h-10v9h10zM40 98V88H30v10zM120 98V88h-10v10zM40 118v-10H30v10zM140 118v-10h-10v10zM20 118v-10H10v10zM30 108V98H20v10zM130 108V98h-10v10zM60 98V88H50v10zM110 69V59h-10v10z" />
         <path d="M140 108V59h10v49h-10zm-20-20v10h10v10h10v10h10v10h10V49h-30v39h-10zM170 137v-9h-10v9zM70 79V69H60v10zM120 88v-9h-10v9zM10 137v-9H0v9zM90 59V49H80v10zM20 128v-10H10v10zM40 108V98H30v10zM100 69V59H90v10zM110 79V69h-10v10zM60 88v-9H50v9zM50 98V88H40v10zM30 118v-10H20v10zM80 69V59H70v10z" />
         <path fill="none" d="M10 118v-10h10V98h10V88h10v-9h10V69h10V59h10V49h30v10h10v10h10v10h10V49h30v69h10v29h-10v-10h-10v79h30V0H0v118zM0 147v69h20v-79H10v10z" />
         <path fill="#FEFEFE" d="M100 216v-49H70v49zM150 137v-9h-10v9zM90 79V69H80v10zM100 88v-9H90v9zM140 128v-10h-10v10zM40 118H30v10h10zM120 108V98h-10v10zM30 128H20v9h10zM80 79H70v9h10zM70 88H60v10h10zM50 108H40v10h10zM60 98H50v10h10zM130 118v-10h-10v10zM110 98V88h-10v10z" />
         <path fill="#7092BE" d="M70 88v10H60v10H50v10H40v10H30v9H20v79h50v-49h30v49h50v-79h-10v-9h-10v-10h-10v-10h-10V98h-10V88H90v-9H80v9z" />
      </g>
      <g class="sprite" id="hb-1400">
         <path fill="none" d="M0 0h180v216H0z" />
         <ellipse fill="#B3B3B3" cx="85" cy="143" rx="59" ry="58" />
         <ellipse fill="#fff" cx="85" cy="143" rx="47" ry="46" />
         <path fill="red" d="M77 177h16v-26h26v-16H93v-25H77v25H51v16h26v26zm0-13" />
      </g>
      <g class="sprite" id="hb-2000">
         <path fill="none" d="M0 0h180v216H0z" />
         <path fill="#0D9900" d="M78 148c0 5 2 6 7 8 10 4 23 7 23 21 0 7-1 11-6 16-2 2-8 5-13 5v10h-8v-10c-7 0-14-5-17-11-1-1-2-5-2-7 3 0 10-2 12-3 1 10 12 13 17 9 3-2 3-4 3-7 0-10-30-6-30-28 0-5 2-10 5-14 3-3 7-5 12-5v-8h8v8c8 0 15 7 17 15l-11 4c-1-2-1-4-3-6-5-6-14-3-14 3zm-57 40c0 7 2 15 7 20 2 1 2 2 5 3 7 4 18 5 28 5h47c13 0 25-1 33-8 17-13 1-51-6-62-1-2-1-3-2-5-1-1-2-2-3-4-4-6-7-9-12-15-2-1-6-6-8-6H60c-2 0-5 4-7 6-2 1-4 4-5 5-4 4-11 14-13 19-1 0-1 1-1 2-7 11-13 27-13 40zM60 98h50c1 0 5-5 6-6 2-1 4-5 5-7 2-3 4-6 2-10-1-3-5-4-9-4-6 0-16 5-21 7-7 3-8 4-15 0-8-3-16-7-24-7-3 0-6 2-7 4-3 9 12 23 13 23zM58 106c0 4 1 6 6 6h42c7 0 7-6 5-8-1-1-2-2-3-2H62c-1 0-2 1-3 2 0 0-1 1-1 2z" />
      </g>
      <g class="sprite" id="hb-20010">
         <path fill="#727272" d="M20 88v-9H10v9zM50 118v-10H40v10zM30 98V88H20v10zM40 108V98H30v10zM60 128v-10H50v10zM10 79V69H0v10z" />
         <path fill="#8C8C8C" d="M170 79V69H20v10z" />
         <path fill="#D6D6D6" d="M170 108V98H50v10z" />
         <path fill="#9C9C9C" d="M170 88v-9H30v9z" />
         <path fill="#BCBCBC" d="M170 98V88H40v10z" />
         <path fill="#737373" d="M170 69V59H10v10z" />
         <path fill="#EEE" d="M170 118v-10H60v10z" />
         <path d="M0 10v39h170V10zM180 128v-10H60v10zM40 98V88H30v10zM10 69V59H0v10zM20 79V69H10v10zM30 88v-9H20v9zM50 108V98H40v10zM60 118v-10H50v10z" />
         <path fill="none" d="M180 128H50v-10H40v-10H30V98H20V88H10v-9H0v137h180zM0 49v10h170v59h10V0H0v10h170v39z" />
      </g>
      <g class="sprite" id="hb-20020">
         <path fill="#8C8C8C" d="M170 79V69H0v10z" />
         <path fill="#D6D6D6" d="M170 108V98H0v10z" />
         <path fill="#9C9C9C" d="M170 88v-9H0v9z" />
         <path fill="#BCBCBC" d="M170 98V88H0v10z" />
         <path fill="#737373" d="M170 69V59H0v10z" />
         <path fill="#EEE" d="M170 118v-10H0v10z" />
         <path d="M0 10v39h170V10zM180 128v-10H0v10z" />
         <path fill="none" d="M180 128H0v88h180zM0 49v10h170v59h10V0H0v10h170v39z" />
      </g>
      <g class="sprite" id="hb-20030">
         <path fill="#727272" d="M150 88h-10v10h10zM170 69h-10v10h10zM160 79h-10v9h10zM140 98h-10v10h10zM130 108h-10v10h10zM120 118h-10v10h10z" />
         <path fill="#8C8C8C" d="M150 79V69H0v10z" />
         <path fill="#D6D6D6" d="M120 108V98H0v10z" />
         <path fill="#9C9C9C" d="M140 88v-9H0v9z" />
         <path fill="#BCBCBC" d="M130 98V88H0v10z" />
         <path fill="#737373" d="M160 69V59H0v10z" />
         <path fill="#EEE" d="M110 118v-10H0v10z" />
         <path d="M0 10v39h170V10zM110 128v-10H0v10zM180 69V59h-20v10zM140 98V88h-10v10zM150 88v-9h-10v9zM120 118v-10h-10v10zM160 79V69h-10v10zM130 108V98h-10v10z" />
         <path fill="none" d="M160 79v9h-10v10h-10v10h-10v10h-10v10H0v88h180V69h-10v10zM0 49v10h180V0H0v10h170v39z" />
      </g>
      <g class="sprite" id="hb-20110">
         <path fill="#727272" d="M20 88v-9H10v9zM50 118v-10H40v10zM10 79V69H0v10zM30 98V88H20v10zM40 108V98H30v10zM60 128v-10H50v10z" />
         <path fill="#AED7FF" d="M170 108V98H50v10z" />
         <path fill="#6FB7FF" d="M170 79V69H20v10z" />
         <path fill="#C4E1FE" d="M170 118v-10H60v10z" />
         <path fill="#84C1FF" d="M170 88v-9H30v9z" />
         <path fill="#99CCFE" d="M170 98V88H40v10z" />
         <path d="M0 10v39h170V10zM180 128v-10H60v10zM40 98V88H30v10zM10 69V59H0v10zM20 79V69H10v10zM30 88v-9H20v9zM50 108V98H40v10zM60 118v-10H50v10z" />
         <path fill="#5AADFF" d="M170 69V59H10v10z" />
         <path fill="none" d="M180 128H50v-10H40v-10H30V98H20V88H10v-9H0v137h180zM0 49v10h170v59h10V0H0v10h170v39z" />
      </g>
      <g class="sprite" id="hb-20111">
         <path fill="#727272" d="M30 98V88H20v10zM10 79V69H0v10zM20 88v-9H10v9zM40 108V98H30v10zM50 118v-10H40v10zM60 128v-10H50v10z" />
         <path fill="#0076AE" d="M170 79V69H20v10z" />
         <path fill="#00A0EE" d="M170 108V98H50v10z" />
         <path fill="#04ADFF" d="M170 118v-10H60v10z" />
         <path fill="#0084C4" d="M170 88v-9H30v9z" />
         <path fill="#0093D9" d="M170 98V88H40v10z" />
         <path d="M0 10v39h170V10zM180 128v-10H60v10zM30 88v-9H20v9zM40 98V88H30v10zM10 69V59H0v10zM60 118v-10H50v10zM20 79V69H10v10zM50 108V98H40v10z" />
         <path fill="#069" d="M170 69V59H10v10z" />
         <path fill="none" d="M180 128H50v-10H40v-10H30V98H20V88H10v-9H0v137h180zM0 49v10h170v59h10V0H0v10h170v39z" />
      </g>
      <g class="sprite" id="hb-20120">
         <path fill="#AED7FF" d="M170 108V98H0v10z" />
         <path fill="#6FB7FF" d="M170 79V69H0v10z" />
         <path fill="#C4E1FE" d="M170 118v-10H0v10z" />
         <path fill="#84C1FF" d="M170 88v-9H0v9z" />
         <path fill="#99CCFE" d="M170 98V88H0v10z" />
         <path d="M0 10v39h170V10zM180 128v-10H0v10z" />
         <path fill="#5AADFF" d="M170 69V59H0v10z" />
         <path fill="none" d="M180 128H0v88h180zM0 49v10h170v59h10V0H0v10h170v39z" />
      </g>
      <g class="sprite" id="hb-20121">
         <path fill="#0076AE" d="M170 79V69H0v10z" />
         <path fill="#00A0EE" d="M170 108V98H0v10z" />
         <path fill="#04ADFF" d="M170 118v-10H0v10z" />
         <path fill="#0084C4" d="M170 88v-9H0v9z" />
         <path fill="#0093D9" d="M170 98V88H0v10z" />
         <path d="M0 10v39h170V10zM180 128v-10H0v10z" />
         <path fill="#069" d="M170 69V59H0v10z" />
         <path fill="none" d="M180 128H0v88h180zM0 49v10h170v59h10V0H0v10h170v39z" />
      </g>
      <g class="sprite" id="hb-20130">
         <path fill="#727272" d="M160 79h-10v9h10zM130 108h-10v10h10zM170 69h-10v10h10zM150 88h-10v10h10zM140 98h-10v10h10zM120 118h-10v10h10z" />
         <path fill="#AED7FF" d="M120 108V98H0v10z" />
         <path fill="#6FB7FF" d="M150 79V69H0v10z" />
         <path fill="#C4E1FE" d="M110 118v-10H0v10z" />
         <path fill="#84C1FF" d="M140 88v-9H0v9z" />
         <path fill="#99CCFE" d="M130 98V88H0v10z" />
         <path d="M0 10v39h170V10zM110 128v-10H0v10zM180 69V59h-20v10zM140 98V88h-10v10zM160 79V69h-10v10zM150 88v-9h-10v9zM130 108V98h-10v10zM120 118v-10h-10v10z" />
         <path fill="#5AADFF" d="M160 69V59H0v10z" />
         <path fill="none" d="M160 79v9h-10v10h-10v10h-10v10h-10v10H0v88h180V69h-10v10zM0 49v10h180V0H0v10h170v39z" />
      </g>
      <g class="sprite" id="hb-20131">
         <path fill="#727272" d="M150 88h-10v10h10zM160 79h-10v9h10zM130 108h-10v10h10zM120 118h-10v10h10zM170 69h-10v10h10zM140 98h-10v10h10z" />
         <path fill="#0076AE" d="M150 79V69H0v10z" />
         <path fill="#00A0EE" d="M120 108V98H0v10z" />
         <path fill="#04ADFF" d="M110 118v-10H0v10z" />
         <path fill="#0084C4" d="M140 88v-9H0v9z" />
         <path fill="#0093D9" d="M130 98V88H0v10z" />
         <path d="M0 10v39h170V10zM110 128v-10H0v10zM180 69V59h-20v10zM150 88v-9h-10v9zM120 118v-10h-10v10zM160 79V69h-10v10zM140 98V88h-10v10zM130 108V98h-10v10z" />
         <path fill="#069" d="M160 69V59H0v10z" />
         <path fill="none" d="M160 79v9h-10v10h-10v10h-10v10h-10v10H0v88h180V69h-10v10zM0 49v10h180V0H0v10h170v39z" />
      </g>
      <g class="sprite" id="hb-21010">
         <path fill="#727272" d="M30 98V88H20v10zM20 88v-9H10v9zM50 118v-10H40v10zM60 128v-10H50v10zM40 108V98H30v10zM10 79V69H0v10z" />
         <path fill="#8C8C8C" d="M170 79V69H20v10z" />
         <path fill="#D6D6D6" d="M170 108V98H50v10z" />
         <path fill="#9C9C9C" d="M170 88v-9H30v9z" />
         <path fill="#BCBCBC" d="M170 98V88H40v10z" />
         <path fill="#737373" d="M170 69V59H10v10z" />
         <path fill="#EEE" d="M170 118v-10H60v10z" />
         <path d="M10 20h150v19H10V20zM0 10v39h170V10H0zM180 128v-10H60v10zM30 88v-9H20v9zM60 118v-10H50v10zM10 69V59H0v10zM20 79V69H10v10zM40 98V88H30v10zM50 108V98H40v10z" />
         <path fill="none" d="M180 128H50v-10H40v-10H30V98H20V88H10v-9H0v137h180zM0 49v10h170v59h10V0H0v10h170v39z" />
         <path fill="#FEFEFE" d="M10 39h150V20H10z" />
      </g>
      <g class="sprite" id="hb-21020">
         <path fill="#8C8C8C" d="M170 79V69H0v10z" />
         <path fill="#D6D6D6" d="M170 108V98H0v10z" />
         <path fill="#9C9C9C" d="M170 88v-9H0v9z" />
         <path fill="#BCBCBC" d="M170 98V88H0v10z" />
         <path fill="#737373" d="M170 69V59H0v10z" />
         <path fill="#EEE" d="M170 118v-10H0v10z" />
         <path d="M10 20h150v19H10V20zM0 10v39h170V10H0zM180 128v-10H0v10z" />
         <path fill="none" d="M180 128H0v88h180zM0 49v10h170v59h10V0H0v10h170v39z" />
         <path fill="#FEFEFE" d="M10 39h150V20H10z" />
      </g>
      <g class="sprite" id="hb-21030">
         <path fill="#727272" d="M150 88h-10v10h10zM170 69h-10v10h10zM160 79h-10v9h10zM140 98h-10v10h10zM130 108h-10v10h10zM120 118h-10v10h10z" />
         <path fill="#8C8C8C" d="M150 79V69H0v10z" />
         <path fill="#D6D6D6" d="M120 108V98H0v10z" />
         <path fill="#9C9C9C" d="M140 88v-9H0v9z" />
         <path fill="#BCBCBC" d="M130 98V88H0v10z" />
         <path fill="#737373" d="M160 69V59H0v10z" />
         <path fill="#EEE" d="M110 118v-10H0v10z" />
         <path d="M10 20h150v19H10V20zM0 10v39h170V10H0zM110 128v-10H0v10zM180 69V59h-20v10zM140 98V88h-10v10zM150 88v-9h-10v9zM120 118v-10h-10v10zM130 108V98h-10v10zM160 79V69h-10v10z" />
         <path fill="none" d="M160 79v9h-10v10h-10v10h-10v10h-10v10H0v88h180V69h-10v10zM0 49v10h180V0H0v10h170v39z" />
         <path fill="#FEFEFE" d="M10 39h150V20H10z" />
      </g>
      <g class="sprite" id="hb-21110">
         <path fill="#727272" d="M20 88v-9H10v9zM50 118v-10H40v10zM30 98V88H20v10zM40 108V98H30v10zM60 128v-10H50v10zM10 79V69H0v10z" />
         <path fill="#AED7FF" d="M170 108V98H50v10z" />
         <path fill="#6FB7FF" d="M170 79V69H20v10z" />
         <path fill="#C4E1FE" d="M170 118v-10H60v10z" />
         <path fill="#84C1FF" d="M170 88v-9H30v9z" />
         <path fill="#99CCFE" d="M170 98V88H40v10z" />
         <path d="M10 20h150v19H10V20zM0 10v39h170V10H0zM180 128v-10H60v10zM40 98V88H30v10zM10 69V59H0v10zM20 79V69H10v10zM30 88v-9H20v9zM50 108V98H40v10zM60 118v-10H50v10z" />
         <path fill="#5AADFF" d="M170 69V59H10v10z" />
         <path fill="none" d="M180 128H50v-10H40v-10H30V98H20V88H10v-9H0v137h180zM0 49v10h170v59h10V0H0v10h170v39z" />
         <path fill="#FEFEFE" d="M10 39h150V20H10z" />
      </g>
      <g class="sprite" id="hb-21111">
         <path fill="#727272" d="M30 98V88H20v10zM10 79V69H0v10zM20 88v-9H10v9zM40 108V98H30v10zM50 118v-10H40v10zM60 128v-10H50v10z" />
         <path fill="#0076AE" d="M170 79V69H20v10z" />
         <path fill="#00A0EE" d="M170 108V98H50v10z" />
         <path fill="#04ADFF" d="M170 118v-10H60v10z" />
         <path fill="#0084C4" d="M170 88v-9H30v9z" />
         <path fill="#0093D9" d="M170 98V88H40v10z" />
         <path d="M10 20h150v19H10V20zM0 10v39h170V10H0zM180 128v-10H60v10zM10 69V59H0v10zM30 88v-9H20v9zM40 98V88H30v10zM60 118v-10H50v10zM50 108V98H40v10zM20 79V69H10v10z" />
         <path fill="#069" d="M170 69V59H10v10z" />
         <path fill="none" d="M180 128H50v-10H40v-10H30V98H20V88H10v-9H0v137h180zM0 49v10h170v59h10V0H0v10h170v39z" />
         <path fill="#FEFEFE" d="M10 39h150V20H10z" />
      </g>
      <g class="sprite" id="hb-21120">
         <path fill="#AED7FF" d="M170 108V98H0v10z" />
         <path fill="#6FB7FF" d="M170 79V69H0v10z" />
         <path fill="#C4E1FE" d="M170 118v-10H0v10z" />
         <path fill="#84C1FF" d="M170 88v-9H0v9z" />
         <path fill="#99CCFE" d="M170 98V88H0v10z" />
         <path d="M10 20h150v19H10V20zM0 10v39h170V10H0zM180 128v-10H0v10z" />
         <path fill="#5AADFF" d="M170 69V59H0v10z" />
         <path fill="none" d="M180 128H0v88h180zM0 49v10h170v59h10V0H0v10h170v39z" />
         <path fill="#FEFEFE" d="M10 39h150V20H10z" />
      </g>
      <g class="sprite" id="hb-21121">
         <path fill="#0076AE" d="M170 79V69H0v10z" />
         <path fill="#00A0EE" d="M170 108V98H0v10z" />
         <path fill="#04ADFF" d="M170 118v-10H0v10z" />
         <path fill="#0084C4" d="M170 88v-9H0v9z" />
         <path fill="#0093D9" d="M170 98V88H0v10z" />
         <path d="M10 20h150v19H10V20zM0 10v39h170V10H0zM180 128v-10H0v10z" />
         <path fill="#069" d="M170 69V59H0v10z" />
         <path fill="none" d="M180 128H0v88h180zM0 49v10h170v59h10V0H0v10h170v39z" />
         <path fill="#FEFEFE" d="M10 39h150V20H10z" />
      </g>
      <g class="sprite" id="hb-21130">
         <path fill="#727272" d="M150 88h-10v10h10zM170 69h-10v10h10zM160 79h-10v9h10zM140 98h-10v10h10zM130 108h-10v10h10zM120 118h-10v10h10z" />
         <path fill="#AED7FF" d="M120 108V98H0v10z" />
         <path fill="#6FB7FF" d="M150 79V69H0v10z" />
         <path fill="#C4E1FE" d="M110 118v-10H0v10z" />
         <path fill="#84C1FF" d="M140 88v-9H0v9z" />
         <path fill="#99CCFE" d="M130 98V88H0v10z" />
         <path d="M10 20h150v19H10V20zM0 10v39h170V10H0zM110 128v-10H0v10zM180 69V59h-20v10zM150 88v-9h-10v9zM140 98V88h-10v10zM120 118v-10h-10v10zM130 108V98h-10v10zM160 79V69h-10v10z" />
         <path fill="#5AADFF" d="M160 69V59H0v10z" />
         <path fill="none" d="M160 79v9h-10v10h-10v10h-10v10h-10v10H0v88h180V69h-10v10zM0 49v10h180V0H0v10h170v39z" />
         <path fill="#FEFEFE" d="M10 39h150V20H10z" />
      </g>
      <g class="sprite" id="hb-21131">
         <path fill="#727272" d="M160 79h-10v9h10zM150 88h-10v10h10zM130 108h-10v10h10zM170 69h-10v10h10zM140 98h-10v10h10zM120 118h-10v10h10z" />
         <path fill="#0076AE" d="M150 79V69H0v10z" />
         <path fill="#00A0EE" d="M120 108V98H0v10z" />
         <path fill="#04ADFF" d="M110 118v-10H0v10z" />
         <path fill="#0084C4" d="M140 88v-9H0v9z" />
         <path fill="#0093D9" d="M130 98V88H0v10z" />
         <path d="M10 20h150v19H10V20zM0 10v39h170V10H0zM110 128v-10H0v10zM180 69V59h-20v10zM150 88v-9h-10v9zM160 79V69h-10v10zM140 98V88h-10v10zM130 108V98h-10v10zM120 118v-10h-10v10z" />
         <path fill="#069" d="M160 69V59H0v10z" />
         <path fill="none" d="M160 79v9h-10v10h-10v10h-10v10h-10v10H0v88h180V69h-10v10zM0 49v10h180V0H0v10h170v39z" />
         <path fill="#FEFEFE" d="M10 39h150V20H10z" />
      </g>
      <g class="sprite" id="hb-200100">
         <path fill="#727272" d="M20 88v-9H10v9zM50 118v-10H40v10zM30 98V88H20v10zM40 108V98H30v10zM60 128v-10H50v10zM10 79V69H0v10z" />
         <path fill="#8C8C8C" d="M170 79V69H20v10z" />
         <path fill="#D6D6D6" d="M170 108V98H50v10z" />
         <path fill="#9C9C9C" d="M170 88v-9H30v9z" />
         <path fill="#BCBCBC" d="M170 98V88H40v10z" />
         <path fill="#737373" d="M170 69V59H10v10z" />
         <path fill="#EEE" d="M170 118v-10H60v10z" />
         <path d="M0 10v39h170V10zM180 128v-10H60v10zM40 98V88H30v10zM10 69V59H0v10zM20 79V69H10v10zM30 88v-9H20v9zM50 108V98H40v10zM60 118v-10H50v10z" />
         <path fill="none" d="M180 128H50v-10H40v-10H30V98H20V88H10v-9H0v137h180zM0 49v10h170v59h10V0H0v10h170v39z" />
         <path fill="#FF8000" d="M170 187v-50H0v50z" />
         <path fill="#FFFF71" d="M10 177h150v-30H10z" />
      </g>
      <g class="sprite" id="hb-200200">
         <path fill="#8C8C8C" d="M170 79V69H0v10z" />
         <path fill="#D6D6D6" d="M170 108V98H0v10z" />
         <path fill="#9C9C9C" d="M170 88v-9H0v9z" />
         <path fill="#BCBCBC" d="M170 98V88H0v10z" />
         <path fill="#737373" d="M170 69V59H0v10z" />
         <path fill="#EEE" d="M170 118v-10H0v10z" />
         <path d="M0 10v39h170V10zM180 128v-10H0v10z" />
         <path fill="none" d="M180 128H0v88h180zM0 49v10h170v59h10V0H0v10h170v39z" />
         <path fill="#FF8000" d="M170 187v-50H0v50z" />
         <path fill="#FFFF71" d="M10 177h150v-30H10z" />
      </g>
      <g class="sprite" id="hb-200300">
         <path fill="#727272" d="M150 88h-10v10h10zM170 69h-10v10h10zM160 79h-10v9h10zM140 98h-10v10h10zM130 108h-10v10h10zM120 118h-10v10h10z" />
         <path fill="#8C8C8C" d="M150 79V69H0v10z" />
         <path fill="#D6D6D6" d="M120 108V98H0v10z" />
         <path fill="#9C9C9C" d="M140 88v-9H0v9z" />
         <path fill="#BCBCBC" d="M130 98V88H0v10z" />
         <path fill="#737373" d="M160 69V59H0v10z" />
         <path fill="#EEE" d="M110 118v-10H0v10z" />
         <path d="M0 10v39h170V10zM110 128v-10H0v10zM180 69V59h-20v10zM140 98V88h-10v10zM150 88v-9h-10v9zM120 118v-10h-10v10zM160 79V69h-10v10zM130 108V98h-10v10z" />
         <path fill="none" d="M160 79v9h-10v10h-10v10h-10v10h-10v10H0v88h180V69h-10v10zM0 49v10h180V0H0v10h170v39z" />
         <path fill="#FF8000" d="M170 187v-50H0v50z" />
         <path fill="#FFFF71" d="M10 177h150v-30H10z" />
      </g>
      <g class="sprite" id="hb-201100">
         <path fill="#727272" d="M20 88v-9H10v9zM50 118v-10H40v10zM10 79V69H0v10zM30 98V88H20v10zM40 108V98H30v10zM60 128v-10H50v10z" />
         <path fill="#AED7FF" d="M170 108V98H50v10z" />
         <path fill="#6FB7FF" d="M170 79V69H20v10z" />
         <path fill="#C4E1FE" d="M170 118v-10H60v10z" />
         <path fill="#84C1FF" d="M170 88v-9H30v9z" />
         <path fill="#99CCFE" d="M170 98V88H40v10z" />
         <path d="M0 10v39h170V10zM180 128v-10H60v10zM40 98V88H30v10zM10 69V59H0v10zM20 79V69H10v10zM30 88v-9H20v9zM50 108V98H40v10zM60 118v-10H50v10z" />
         <path fill="#5AADFF" d="M170 69V59H10v10z" />
         <path fill="none" d="M180 128H50v-10H40v-10H30V98H20V88H10v-9H0v137h180zM0 49v10h170v59h10V0H0v10h170v39z" />
         <path fill="#FF8000" d="M170 187v-50H0v50z" />
         <path fill="#FFFF71" d="M10 177h150v-30H10z" />
      </g>
      <g class="sprite" id="hb-201110">
         <path fill="#727272" d="M30 98V88H20v10zM10 79V69H0v10zM20 88v-9H10v9zM40 108V98H30v10zM50 118v-10H40v10zM60 128v-10H50v10z" />
         <path fill="#0076AE" d="M170 79V69H20v10z" />
         <path fill="#00A0EE" d="M170 108V98H50v10z" />
         <path fill="#04ADFF" d="M170 118v-10H60v10z" />
         <path fill="#0084C4" d="M170 88v-9H30v9z" />
         <path fill="#0093D9" d="M170 98V88H40v10z" />
         <path d="M0 10v39h170V10zM180 128v-10H60v10zM30 88v-9H20v9zM40 98V88H30v10zM10 69V59H0v10zM60 118v-10H50v10zM20 79V69H10v10zM50 108V98H40v10z" />
         <path fill="#069" d="M170 69V59H10v10z" />
         <path fill="none" d="M180 128H50v-10H40v-10H30V98H20V88H10v-9H0v137h180zM0 49v10h170v59h10V0H0v10h170v39z" />
         <path fill="#FF8000" d="M170 187v-50H0v50z" />
         <path fill="#FFFF71" d="M10 177h150v-30H10z" />
      </g>
      <g class="sprite" id="hb-201200">
         <path fill="#AED7FF" d="M170 108V98H0v10z" />
         <path fill="#6FB7FF" d="M170 79V69H0v10z" />
         <path fill="#C4E1FE" d="M170 118v-10H0v10z" />
         <path fill="#84C1FF" d="M170 88v-9H0v9z" />
         <path fill="#99CCFE" d="M170 98V88H0v10z" />
         <path d="M0 10v39h170V10zM180 128v-10H0v10z" />
         <path fill="#5AADFF" d="M170 69V59H0v10z" />
         <path fill="none" d="M180 128H0v88h180zM0 49v10h170v59h10V0H0v10h170v39z" />
         <path fill="#FF8000" d="M170 187v-50H0v50z" />
         <path fill="#FFFF71" d="M10 177h150v-30H10z" />
      </g>
      <g class="sprite" id="hb-201210">
         <path fill="#0076AE" d="M170 79V69H0v10z" />
         <path fill="#00A0EE" d="M170 108V98H0v10z" />
         <path fill="#04ADFF" d="M170 118v-10H0v10z" />
         <path fill="#0084C4" d="M170 88v-9H0v9z" />
         <path fill="#0093D9" d="M170 98V88H0v10z" />
         <path d="M0 10v39h170V10zM180 128v-10H0v10z" />
         <path fill="#069" d="M170 69V59H0v10z" />
         <path fill="none" d="M180 128H0v88h180zM0 49v10h170v59h10V0H0v10h170v39z" />
         <path fill="#FF8000" d="M170 187v-50H0v50z" />
         <path fill="#FFFF71" d="M10 177h150v-30H10z" />
      </g>
      <g class="sprite" id="hb-201300">
         <path fill="#727272" d="M160 79h-10v9h10zM130 108h-10v10h10zM170 69h-10v10h10zM150 88h-10v10h10zM140 98h-10v10h10zM120 118h-10v10h10z" />
         <path fill="#AED7FF" d="M120 108V98H0v10z" />
         <path fill="#6FB7FF" d="M150 79V69H0v10z" />
         <path fill="#C4E1FE" d="M110 118v-10H0v10z" />
         <path fill="#84C1FF" d="M140 88v-9H0v9z" />
         <path fill="#99CCFE" d="M130 98V88H0v10z" />
         <path d="M0 10v39h170V10zM110 128v-10H0v10zM180 69V59h-20v10zM140 98V88h-10v10zM160 79V69h-10v10zM150 88v-9h-10v9zM130 108V98h-10v10zM120 118v-10h-10v10z" />
         <path fill="#5AADFF" d="M160 69V59H0v10z" />
         <path fill="none" d="M160 79v9h-10v10h-10v10h-10v10h-10v10H0v88h180V69h-10v10zM0 49v10h180V0H0v10h170v39z" />
         <path fill="#FF8000" d="M170 187v-50H0v50z" />
         <path fill="#FFFF71" d="M10 177h150v-30H10z" />
      </g>
      <g class="sprite" id="hb-201310">
         <path fill="#727272" d="M150 88h-10v10h10zM160 79h-10v9h10zM130 108h-10v10h10zM120 118h-10v10h10zM170 69h-10v10h10zM140 98h-10v10h10z" />
         <path fill="#0076AE" d="M150 79V69H0v10z" />
         <path fill="#00A0EE" d="M120 108V98H0v10z" />
         <path fill="#04ADFF" d="M110 118v-10H0v10z" />
         <path fill="#0084C4" d="M140 88v-9H0v9z" />
         <path fill="#0093D9" d="M130 98V88H0v10z" />
         <path d="M0 10v39h170V10zM110 128v-10H0v10zM180 69V59h-20v10zM150 88v-9h-10v9zM120 118v-10h-10v10zM160 79V69h-10v10zM140 98V88h-10v10zM130 108V98h-10v10z" />
         <path fill="#069" d="M160 69V59H0v10z" />
         <path fill="none" d="M160 79v9h-10v10h-10v10h-10v10h-10v10H0v88h180V69h-10v10zM0 49v10h180V0H0v10h170v39z" />
         <path fill="#FF8000" d="M170 187v-50H0v50z" />
         <path fill="#FFFF71" d="M10 177h150v-30H10z" />
      </g>
      <g class="sprite" id="hb-210100">
         <path fill="#727272" d="M30 98V88H20v10zM20 88v-9H10v9zM50 118v-10H40v10zM60 128v-10H50v10zM40 108V98H30v10zM10 79V69H0v10z" />
         <path fill="#8C8C8C" d="M170 79V69H20v10z" />
         <path fill="#D6D6D6" d="M170 108V98H50v10z" />
         <path fill="#9C9C9C" d="M170 88v-9H30v9z" />
         <path fill="#BCBCBC" d="M170 98V88H40v10z" />
         <path fill="#737373" d="M170 69V59H10v10z" />
         <path fill="#EEE" d="M170 118v-10H60v10z" />
         <path d="M10 20h150v19H10V20zM0 10v39h170V10H0zM180 128v-10H60v10zM30 88v-9H20v9zM60 118v-10H50v10zM10 69V59H0v10zM20 79V69H10v10zM40 98V88H30v10zM50 108V98H40v10z" />
         <path fill="none" d="M180 128H50v-10H40v-10H30V98H20V88H10v-9H0v137h180zM0 49v10h170v59h10V0H0v10h170v39z" />
         <path fill="#FEFEFE" d="M10 39h150V20H10z" />
         <path fill="#FF8000" d="M170 187v-50H0v50z" />
         <path fill="#FFFF71" d="M10 177h150v-30H10z" />
      </g>
      <g class="sprite" id="hb-210200">
         <path fill="#8C8C8C" d="M170 79V69H0v10z" />
         <path fill="#D6D6D6" d="M170 108V98H0v10z" />
         <path fill="#9C9C9C" d="M170 88v-9H0v9z" />
         <path fill="#BCBCBC" d="M170 98V88H0v10z" />
         <path fill="#737373" d="M170 69V59H0v10z" />
         <path fill="#EEE" d="M170 118v-10H0v10z" />
         <path d="M10 20h150v19H10V20zM0 10v39h170V10H0zM180 128v-10H0v10z" />
         <path fill="none" d="M180 128H0v88h180zM0 49v10h170v59h10V0H0v10h170v39z" />
         <path fill="#FEFEFE" d="M10 39h150V20H10z" />
         <path fill="#FF8000" d="M170 187v-50H0v50z" />
         <path fill="#FFFF71" d="M10 177h150v-30H10z" />
      </g>
      <g class="sprite" id="hb-210300">
         <path fill="#727272" d="M150 88h-10v10h10zM170 69h-10v10h10zM160 79h-10v9h10zM140 98h-10v10h10zM130 108h-10v10h10zM120 118h-10v10h10z" />
         <path fill="#8C8C8C" d="M150 79V69H0v10z" />
         <path fill="#D6D6D6" d="M120 108V98H0v10z" />
         <path fill="#9C9C9C" d="M140 88v-9H0v9z" />
         <path fill="#BCBCBC" d="M130 98V88H0v10z" />
         <path fill="#737373" d="M160 69V59H0v10z" />
         <path fill="#EEE" d="M110 118v-10H0v10z" />
         <path d="M10 20h150v19H10V20zM0 10v39h170V10H0zM110 128v-10H0v10zM180 69V59h-20v10zM140 98V88h-10v10zM150 88v-9h-10v9zM120 118v-10h-10v10zM130 108V98h-10v10zM160 79V69h-10v10z" />
         <path fill="none" d="M160 79v9h-10v10h-10v10h-10v10h-10v10H0v88h180V69h-10v10zM0 49v10h180V0H0v10h170v39z" />
         <path fill="#FEFEFE" d="M10 39h150V20H10z" />
         <path fill="#FF8000" d="M170 187v-50H0v50z" />
         <path fill="#FFFF71" d="M10 177h150v-30H10z" />
      </g>
      <g class="sprite" id="hb-211100">
         <path fill="#727272" d="M20 88v-9H10v9zM50 118v-10H40v10zM30 98V88H20v10zM40 108V98H30v10zM60 128v-10H50v10zM10 79V69H0v10z" />
         <path fill="#AED7FF" d="M170 108V98H50v10z" />
         <path fill="#6FB7FF" d="M170 79V69H20v10z" />
         <path fill="#C4E1FE" d="M170 118v-10H60v10z" />
         <path fill="#84C1FF" d="M170 88v-9H30v9z" />
         <path fill="#99CCFE" d="M170 98V88H40v10z" />
         <path d="M10 20h150v19H10V20zM0 10v39h170V10H0zM180 128v-10H60v10zM40 98V88H30v10zM10 69V59H0v10zM20 79V69H10v10zM30 88v-9H20v9zM50 108V98H40v10zM60 118v-10H50v10z" />
         <path fill="#5AADFF" d="M170 69V59H10v10z" />
         <path fill="none" d="M180 128H50v-10H40v-10H30V98H20V88H10v-9H0v137h180zM0 49v10h170v59h10V0H0v10h170v39z" />
         <path fill="#FEFEFE" d="M10 39h150V20H10z" />
         <path fill="#FF8000" d="M170 187v-50H0v50z" />
         <path fill="#FFFF71" d="M10 177h150v-30H10z" />
      </g>
      <g class="sprite" id="hb-211110">
         <path fill="#727272" d="M30 98V88H20v10zM10 79V69H0v10zM20 88v-9H10v9zM40 108V98H30v10zM50 118v-10H40v10zM60 128v-10H50v10z" />
         <path fill="#0076AE" d="M170 79V69H20v10z" />
         <path fill="#00A0EE" d="M170 108V98H50v10z" />
         <path fill="#04ADFF" d="M170 118v-10H60v10z" />
         <path fill="#0084C4" d="M170 88v-9H30v9z" />
         <path fill="#0093D9" d="M170 98V88H40v10z" />
         <path d="M10 20h150v19H10V20zM0 10v39h170V10H0zM180 128v-10H60v10zM10 69V59H0v10zM30 88v-9H20v9zM40 98V88H30v10zM60 118v-10H50v10zM50 108V98H40v10zM20 79V69H10v10z" />
         <path fill="#069" d="M170 69V59H10v10z" />
         <path fill="none" d="M180 128H50v-10H40v-10H30V98H20V88H10v-9H0v137h180zM0 49v10h170v59h10V0H0v10h170v39z" />
         <path fill="#FEFEFE" d="M10 39h150V20H10z" />
         <path fill="#FF8000" d="M170 187v-50H0v50z" />
         <path fill="#FFFF71" d="M10 177h150v-30H10z" />
      </g>
      <g class="sprite" id="hb-211200">
         <path fill="#AED7FF" d="M170 108V98H0v10z" />
         <path fill="#6FB7FF" d="M170 79V69H0v10z" />
         <path fill="#C4E1FE" d="M170 118v-10H0v10z" />
         <path fill="#84C1FF" d="M170 88v-9H0v9z" />
         <path fill="#99CCFE" d="M170 98V88H0v10z" />
         <path d="M10 20h150v19H10V20zM0 10v39h170V10H0zM180 128v-10H0v10z" />
         <path fill="#5AADFF" d="M170 69V59H0v10z" />
         <path fill="none" d="M180 128H0v88h180zM0 49v10h170v59h10V0H0v10h170v39z" />
         <path fill="#FEFEFE" d="M10 39h150V20H10z" />
         <path fill="#FF8000" d="M170 187v-50H0v50z" />
         <path fill="#FFFF71" d="M10 177h150v-30H10z" />
      </g>
      <g class="sprite" id="hb-211210">
         <path fill="#0076AE" d="M170 79V69H0v10z" />
         <path fill="#00A0EE" d="M170 108V98H0v10z" />
         <path fill="#04ADFF" d="M170 118v-10H0v10z" />
         <path fill="#0084C4" d="M170 88v-9H0v9z" />
         <path fill="#0093D9" d="M170 98V88H0v10z" />
         <path d="M10 20h150v19H10V20zM0 10v39h170V10H0zM180 128v-10H0v10z" />
         <path fill="#069" d="M170 69V59H0v10z" />
         <path fill="none" d="M180 128H0v88h180zM0 49v10h170v59h10V0H0v10h170v39z" />
         <path fill="#FEFEFE" d="M10 39h150V20H10z" />
         <path fill="#FF8000" d="M170 187v-50H0v50z" />
         <path fill="#FFFF71" d="M10 177h150v-30H10z" />
      </g>
      <g class="sprite" id="hb-211300">
         <path fill="#727272" d="M150 88h-10v10h10zM170 69h-10v10h10zM160 79h-10v9h10zM140 98h-10v10h10zM130 108h-10v10h10zM120 118h-10v10h10z" />
         <path fill="#AED7FF" d="M120 108V98H0v10z" />
         <path fill="#6FB7FF" d="M150 79V69H0v10z" />
         <path fill="#C4E1FE" d="M110 118v-10H0v10z" />
         <path fill="#84C1FF" d="M140 88v-9H0v9z" />
         <path fill="#99CCFE" d="M130 98V88H0v10z" />
         <path d="M10 20h150v19H10V20zM0 10v39h170V10H0zM110 128v-10H0v10zM180 69V59h-20v10zM150 88v-9h-10v9zM140 98V88h-10v10zM120 118v-10h-10v10zM130 108V98h-10v10zM160 79V69h-10v10z" />
         <path fill="#5AADFF" d="M160 69V59H0v10z" />
         <path fill="none" d="M160 79v9h-10v10h-10v10h-10v10h-10v10H0v88h180V69h-10v10zM0 49v10h180V0H0v10h170v39z" />
         <path fill="#FEFEFE" d="M10 39h150V20H10z" />
         <path fill="#FF8000" d="M170 187v-50H0v50z" />
         <path fill="#FFFF71" d="M10 177h150v-30H10z" />
      </g>
      <g class="sprite" id="hb-211310">
         <path fill="#727272" d="M160 79h-10v9h10zM150 88h-10v10h10zM130 108h-10v10h10zM170 69h-10v10h10zM140 98h-10v10h10zM120 118h-10v10h10z" />
         <path fill="#0076AE" d="M150 79V69H0v10z" />
         <path fill="#00A0EE" d="M120 108V98H0v10z" />
         <path fill="#04ADFF" d="M110 118v-10H0v10z" />
         <path fill="#0084C4" d="M140 88v-9H0v9z" />
         <path fill="#0093D9" d="M130 98V88H0v10z" />
         <path d="M10 20h150v19H10V20zM0 10v39h170V10H0zM110 128v-10H0v10zM180 69V59h-20v10zM150 88v-9h-10v9zM160 79V69h-10v10zM140 98V88h-10v10zM130 108V98h-10v10zM120 118v-10h-10v10z" />
         <path fill="#069" d="M160 69V59H0v10z" />
         <path fill="none" d="M160 79v9h-10v10h-10v10h-10v10h-10v10H0v88h180V69h-10v10zM0 49v10h180V0H0v10h170v39z" />
         <path fill="#FEFEFE" d="M10 39h150V20H10z" />
         <path fill="#FF8000" d="M170 187v-50H0v50z" />
         <path fill="#FFFF71" d="M10 177h150v-30H10z" />
      </g>
      <g class="sprite" id="btn-castigar">
         <path fill="none" d="M0 0h180v216H0z" />
         <circle fill="#00293d" cx="90" cy="108" r="71" />
         <rect fill="#008fd6" x="41" y="99" width="98.962" height="18.176" rx="5" ry="4" />
      </g>
      <g class="sprite" id="btn-cronometro">
         <path fill="none" d="M0 0h180v216H0z" />
         <path d="M90 120V69c29 0 52 23 52 51 0 13-6 26-15 36l-37-36z" />
         <ellipse fill="#003D5C" cx="90" cy="120" rx="76" ry="74" />
         <ellipse fill="#fff" cx="90" cy="120" rx="60" ry="59" />
         <path fill="#003D5C" d="M90 155c2 0 3 2 3 4v6c0 2-1 3-3 3s-3-1-3-3v-6c0-2 1-4 3-4zM64 145c2 1 2 3 0 5l-4 4c-2 1-4 1-5 0s-1-3 0-5l4-4c2-1 4-1 5 0zM54 120c0 2-2 3-4 3h-6c-2 0-4-1-4-3s2-4 4-4h6c2 0 4 2 4 4zM64 95c-1 1-3 1-4 0l-5-5c-1-1-1-3 0-5 1-1 3-1 5 0l4 5c2 1 2 3 0 5z" />
         <path fill="none" d="M90 84c-2 0-3-1-3-3v-7c0-1 1-3 3-3s3 2 3 3v7c0 2-1 3-3 3z" />
         <path fill="#003D5C" d="M116 95c-2-2-2-4 0-5l4-5c2-1 4-1 5 0 1 2 1 4 0 5l-4 5c-2 1-4 1-5 0zM126 120c0-2 2-4 4-4h6c2 0 4 2 4 4s-2 3-4 3h-6c-2 0-4-1-4-3z" />
         <path fill="none" d="M116 145c1-1 3-1 4 0l5 5c1 1 1 3 0 4-1 2-3 2-5 0l-4-4c-2-2-2-4 0-5z" />
         <path fill="#003D5C" d="M97 22H83c-5 0-10 4-10 9v10h34V31c0-5-5-9-10-9zM38 53l-6 5c-2 2-2 5 0 8l3 4 14-12-3-4c-2-2-6-3-8-1zM148 58l-6-5c-3-2-6-1-8 1l-3 4 14 12 3-4c2-3 2-6 0-8z" />
         <path fill="#003D5C" d="M84 38h12.976v10.192H84zM100 116L90 60l-10 56c0 6 5 10 10 10s10-4 10-10z" />
         <path fill="#003D5C" d="M83 123l48 33-34-46c-4-4-10-4-14 0-4 3-4 9 0 13z" />
      </g>
      <g class="sprite" id="btn-eliminar">
         <path fill="none" d="M0 0h180v216H0z" />
         <path fill="#00293d" d="M43 152c-1-10-2-21-3-32-1-10-3-22-4-32h108c-1 10-3 22-4 32-1 11-2 22-3 32-4 38-1 35-45 35h-4c-44 0-41 3-45-35z" />
         <path fill="#00293d" d="M87 97h6c1 0 2 1 2 2v72c0 1-1 1-2 1h-6c-1 0-2 0-2-1V99c0-1 1-2 2-2zM115 98h6c1 0 2 1 2 2l-5 72s-1 1-2 1h-6c-1 0-2-1-2-2l5-72s1-1 2-1zM59 98h6c1 0 2 1 2 1l5 72c0 1-1 2-2 2h-6c-1 0-2-1-2-1l-5-72c0-1 1-2 2-2zM90 29h9c9 0 13-1 17 5 3 5 3 13 5 18 5 1 19-1 21 1l10 14-3 8H31l-3-8 10-14c2-2 16 0 21-1 2-5 2-13 5-18 4-6 8-5 17-5h9zm0 27h19c0-3 0-5-1-8 0-5 0-5-2-8H74c-2 3-2 3-2 8-1 3-1 5-1 8h19z" />
      </g>
      <g class="sprite" id="btn-gasto">
         <path fill="none" d="M0 0h180v216H0z" />
         <path fill="#003D5C" d="M11 52v77c0 2 2 4 5 4h148c2 0 5-2 5-4V52c0-2-3-4-5-4H16c-3 0-5 2-5 4z" />
         <path fill="#fff" d="M21 57h138v67H21z" />
         <path fill="#003D5C" d="M0 74v88c0 2 3 5 5 5h170c2 0 5-3 5-5V74c0-2-3-4-5-4H5c-2 0-5 2-5 4z" />
         <path fill="#fff" d="M28 156c0-9-7-16-17-16V97c10 0 17-7 17-17h124c0 10 7 17 17 17v43c-10 0-17 7-17 16H28z" />
         <path fill="#003D5C" d="M39 108c5 0 9 5 9 10 0 6-4 10-9 10-6 0-10-4-10-10 0-5 4-10 10-10zM141 108c6 0 10 5 10 10 0 6-4 10-10 10-5 0-9-4-9-10 0-5 4-10 9-10zM92 83h4v7c8 0 16 9 16 16h-10c0-3-1-5-3-6-4-4-14-4-18-1-4 4-3 9 2 11 7 3 15 3 22 7 14 7 7 30-9 30v6h-4v-6h-3v6h-4v-6c-10-2-16-9-18-19h10c0 4 2 6 5 8 4 3 12 4 17 1 4-3 5-8 1-12-5-3-16-4-23-7-14-8-8-28 8-28v-7h4v6c1 0 2 0 3 1v-7z" />
      </g>
      <g class="sprite" id="btn-item">
         <path fill="none" d="M0 0h180v216H0z" />
         <path fill="#003D5C" d="M165 122l14-45c3-9-1-17-9-21l-44-19c-4-2-9-2-13 0L9 84c-8 4-11 13-8 20l31 68c3 7 12 10 20 7l104-47c4-2 7-6 9-10z" />
         <path fill="#fff" d="M156 118l13-39c3-7-1-14-8-17l-38-15c-3-2-7-2-11 0L21 88c-7 3-10 11-7 17l25 57c3 6 11 9 18 5l91-41c4-2 6-5 8-8z" />
         <circle fill="#003D5C" transform="matrix(1.17706 -.53431 .53431 1.17706 128.299 87.269)" r="16" />
         <circle fill="#fff" transform="matrix(.67684 -.30724 .30724 .67684 128.299 87.269)" r="16" />
         <path fill="#003D5C" d="M40 135l49-22 3 8-48 21zM31 115l61-28 4 7-62 28z" />
      </g>
      <g class="sprite" id="btn-revisar">
         <path fill="none" d="M0 0h180v216H0z" />
         <path fill="#003D5C" d="M0 105v7c0 1 0 1 1 2 5 1 4 3 5 8-1 36 37 50 63 28 9-7 11-16 14-28 2-4 4-5 7-5v-11c-5 0-9-1-11-2-21-14-54-7-71-4-6 1-8 0-8 5zm75 8c3 6-1 21-5 27-17 24-60 18-58-19 1-6 3-12 9-15 11-7 48-6 54 7zM180 105v7c0 1 0 1-1 2-5 1-4 3-5 8 1 36-37 50-63 28-9-7-11-16-14-28-2-4-4-5-7-5v-11c5 0 9-1 11-2 21-14 54-7 71-4 6 1 8 0 8 5zm-75 8c-3 6 1 21 5 27 17 24 60 18 58-19-1-6-3-12-9-15-11-7-48-6-54 7zM5 99c4-1 6-1 10-1 3-6 20-31 24-32 4 0 7 6 9 10 3 5 8 3 8-1 0-5-8-22-18-19-8 2-27 33-33 43zM175 99c-4-1-6-1-10-1-3-6-20-31-24-32-4 0-7 6-9 10-3 5-8 3-8-1 0-5 8-22 18-19 8 2 27 33 33 43z" />
      </g>
      <g class="sprite" id="btn-spelling">
         <path fill="none" d="M0 0h180v216H0z" />
         <path fill="#003D5C" d="M24 61l-11-2c1-5 3-8 7-11 3-2 8-3 14-3s10 1 13 2 5 3 6 5 2 6 2 11l-1 15c0 5 1 8 1 10s1 4 2 6H45c-1-1-1-2-2-4v-1c-2 2-5 4-7 5-3 1-5 1-8 1-5 0-9-1-12-4-3-2-5-6-5-10 0-3 1-5 2-7 2-2 4-4 6-5s6-2 10-3c6-1 11-2 13-3v-1c0-3-1-5-2-6s-4-1-7-1c-2 0-4 0-5 1-2 1-3 3-4 5zm18 10c-2 1-4 1-8 2s-6 2-7 2c-2 1-3 3-3 5s1 3 2 4c2 2 4 2 6 2s4 0 6-2c2-1 3-3 3-4 1-1 1-3 1-6v-3zm25 23V28h13v24c4-5 9-7 14-7 6 0 11 2 15 6 4 5 6 11 6 19s-2 14-6 19c-4 4-9 6-15 6-3 0-5 0-8-2-3-1-5-3-7-6v7H67zm13-25c0 5 0 9 2 11 2 4 5 5 9 5 3 0 5-1 7-3 2-3 3-7 3-12s-1-9-3-12c-2-2-4-3-8-3-3 0-5 1-7 3-2 3-3 6-3 11zm88-9l-13 2c0-2-1-4-3-5-1-1-3-2-6-2s-6 1-7 3c-2 2-3 6-3 11 0 6 1 10 3 12 2 3 4 4 7 4s5-1 6-2c2-2 3-4 4-7l13 2c-2 6-4 10-8 13s-9 4-15 4c-7 0-13-2-17-6-5-5-7-11-7-19s2-14 7-18c4-5 10-7 17-7 6 0 11 1 14 4 4 2 6 6 8 11zM27 170c-3-5-9-20-13-23s-12 1-7 9c4 7 9 18 12 25 1 3 2 5 4 6 2 2 5 2 7 0 2-1 2-4 3-6 5-8 41-67 42-68 1-6-6-9-10-5-8 11-27 42-34 55-1 2-3 6-4 7z" />
         <path fill="#006094" d="M76 170c-2-5-8-20-13-23-4-3-11 1-6 9 4 7 9 18 12 25 1 3 2 5 4 6 2 2 5 2 7 0 2-1 2-4 3-6 5-8 41-67 41-68 2-6-5-9-10-5-7 11-26 42-33 55-1 2-3 6-5 7z" />
         <path fill="#0084CC" d="M126 170c-2-5-9-20-13-23s-11 1-6 9c4 7 9 18 12 25 1 3 2 5 4 6 2 2 5 2 7 0 1-1 2-4 3-6 5-8 41-67 41-68 2-6-5-9-10-5-7 11-26 42-33 55-2 2-3 6-5 7z" />
      </g>
      <g class="sprite" id="btn-trasladar">
         <path fill="none" d="M0 0h180v216H0z" />
         <path fill="#00293d" d="M15 179h150V53H84L68 37H15z" />
         <path fill="#008fd6" d="M45 130h45v26l45-40-45-40v27H45v27zm0-14" />
      </g>
      <g class="sprite" id="btn-ver">
         <path fill="none" d="M0 0h180v216H0z" />
         <path fill="#fff" d="M0 108c54-94 126-94 180 0-54 94-126 94-180 0z" />
         <path fill="#1e6dad" d="M46 109v-2c0-23 20-43 43-43h2c23 0 43 20 43 43v2c0 23-20 43-43 43h-2c-23 0-43-20-43-43z" />
         <path fill="#fff" d="M71 108c0 10 8 19 19 19s19-9 19-19-8-19-19-19-19 9-19 19z" />
      </g>
      <g class="sprite" id="btn-clonar">
         <path fill="none" d="M0 0h180v216H0z" />
         <path fill="#fff" d="M69 47h82.751v109.598H69z" />
         <path d="M82 39h66c6 0 12 6 12 13v92c0 7-6 13-12 13h-29v-8h26c4 0 7-3 7-7V54c0-4-3-7-7-7H84c-2 0-4 2-6 4h-9c1-7 6-12 13-12z" />
         <path d="M80 59l31 31v74c0 7-6 13-13 13H32c-6 0-12-6-12-13V72c0-7 6-13 12-13h48z" />
         <path fill="#fff" d="M77 67l26 26v69c0 4-3 7-7 7H35c-4 0-7-3-7-7V74c0-4 3-7 7-7h42z" />
      </g>
      <g class="sprite" id="c11">
         <path fill="none" d="M0 0h180v216H0z" />
         <path d="M142 194c-2 0-3 0-3-1l-47-24c-1-1-3-1-4 0l-47 24c0 1-2 1-3 1s-3-1-5-2c-1-2-1-4-1-6l9-51c0-2 0-3-1-4L2 94c-2-2-2-4-2-7 1-2 3-4 6-4l52-8c1 0 2-1 3-2l23-47c1-3 3-4 6-4s5 1 6 4l23 47c1 1 2 2 3 2l52 8c3 0 5 2 6 4 0 3 0 5-2 7l-38 37c-1 1-1 2-1 4l9 51c0 2 0 4-1 6-2 1-3 2-5 2z" />
         <path fill="#fff" d="M90 160c1 0 2 0 3 1l41 22h2c1 0 3 0 3-1 1-1 1-2 1-4l-8-46c0-2 1-4 2-5l34-33c1-1 1-3 1-4-1-2-2-3-4-3l-46-7c-2 0-4-1-5-3L94 35c-1-1-2-2-4-2s-3 1-4 2L66 77c-1 2-3 3-5 3l-46 7c-2 0-3 1-4 3 0 1 0 3 1 4l34 33c1 1 2 3 2 5l-8 46c0 2 0 3 1 4 0 1 2 1 3 1h2l41-22c1-1 2-1 3-1z" />
      </g>
      <g class="sprite" id="c12">
         <path fill="none" d="M0 0h180v216H0z" />
         <path fill="#F80" d="M142 194c-2 0-3 0-3-1l-47-24c-1-1-3-1-4 0l-47 24c0 1-2 1-3 1s-3-1-5-2c-1-2-1-4-1-6l9-51c0-2 0-3-1-4L2 94c-2-2-2-4-2-7 1-2 3-4 6-4l52-8c1 0 2-1 3-2l23-47c1-3 3-4 6-4s5 1 6 4l23 47c1 1 2 2 3 2l52 8c3 0 5 2 6 4 0 3 0 5-2 7l-38 37c-1 1-1 2-1 4l9 51c0 2 0 4-1 6-2 1-3 2-5 2z" />
         <path fill="#FFC300" d="M90 160c1 0 2 0 3 1l41 22h2c1 0 3 0 3-1 1-1 1-2 1-4l-8-46c0-2 1-4 2-5l34-33c1-1 1-3 1-4-1-2-2-3-4-3l-46-7c-2 0-4-1-5-3L94 35c-1-1-2-2-4-2s-3 1-4 2L66 77c-1 2-3 3-5 3l-46 7c-2 0-3 1-4 3 0 1 0 3 1 4l34 33c1 1 2 3 2 5l-8 46c0 2 0 3 1 4 0 1 2 1 3 1h2l41-22c1-1 2-1 3-1z" />
      </g>
      <path fill="none" d="M0 216h180V0H0z" id="cro0" />
      <g class="sprite" id="cro1">
         <path fill="none" d="M0 0h180v216H0z" />
         <path fill="#FF9500" d="M163 92c5 3 9 9 9 16s-4 13-9 16c-40 22-79 45-119 68-5 3-12 3-18 0-5-3-9-10-9-16V40c0-6 4-13 9-16 6-3 13-3 18 0 40 23 79 46 119 68z" />
      </g>
      <g class="sprite" id="cro2">
         <path fill="none" d="M0 0h180v216H0z" />
         <path fill="#CF0000" d="M118 22h29c8 0 14 6 14 14v144c0 8-6 14-14 14h-29c-7 0-14-6-14-14V36c0-8 7-14 14-14zM33 22h30c7 0 13 6 13 14v144c0 8-6 14-13 14H33c-7 0-13-6-13-14V36c0-8 6-14 13-14z" />
      </g>
      <g class="sprite" id="reg0">
         <path fill="none" d="M0 0h180v216H0z" />
         <path fill="#003D5C" d="M22 65h136c9 0 17 8 17 17v86c0 10-8 18-17 18H22c-9 0-17-8-17-18V82c0-9 8-17 17-17z" />
         <path fill="#fff" d="M23 78h132c3 0 6 3 6 7v82c0 3-3 6-6 6H23c-3 0-6-3-6-6V85c0-4 3-7 6-7z" />
         <path fill="#006094" d="M30 98h120v7H30v-7zm0 24h120v8H30v-8zm0 23h120v8H30v-8z" />
         <path fill="#fff" d="M72 164L172 64l-45-45L27 119c-13 12-13 33 0 45 12 12 33 12 45 0z" />
         <path fill="#103656" d="M44 119c-5 9-11 21-14 28-3 10 4 17 14 13 6-2 19-9 28-13l-28-28z" />
         <path fill="#103656" d="M72 147L172 47c4-4 4-10 0-14l-14-14c-4-4-11-4-15 0L44 119l28 28z" />
         <path fill="#fff" d="M66 141c-25 13-25 13-27 11s-2-3 11-27l16 16zM163 48l4-4c2-2 2-6 0-8l-12-12c-2-2-6-2-8 0l-4 4 20 20z" />
      </g>
      <g class="sprite" id="reg1">
         <path fill="none" d="M0 0h180v216H0z" />
         <path fill="#103656" d="M175 151v31c0 8-7 14-15 14H20c-8 0-15-6-15-14v-31h9v31c0 3 3 5 6 5h140c3 0 6-2 6-5v-31h9z" />
         <path fill="#0D9900" d="M116 103h-1V31c0-6-5-11-11-11H76c-6 0-11 5-11 11v72H17l73 76 73-76h-47z" />
      </g>
      <g class="sprite" id="c24">
         <path fill="none" d="M0 0h180v216H0z" />
         <path fill="#0D9900" d="M120 75h20V47c0-24-23-47-48-47-27 0-52 19-52 47v47c-3 0-5 0-8 2-6 2-11 9-11 16v69c0 9 9 18 18 18h102c9 0 18-9 18-18v-69c0-10-9-18-19-18-20 0-60-1-80-1V51c0-42 60-39 60-2v26zm-44 62c0-13 15-19 24-11 8 9 2 21-5 23v24c-2 5-8 6-9 1-1-2-1-22-1-25-5-2-9-9-9-12z" />
      </g>
      <g class="sprite" id="c25">
         <path fill="none" d="M0 0h180v216H0z" />
         <path fill="gray" d="M40 66v28c-3 0-5 0-8 2-4 2-8 5-9 9-1 1-2 4-2 7v69c0 9 9 18 18 18h102c3 0 6-1 7-1 6-3 11-10 11-17v-69c0-6-3-11-7-14-4-4-8-4-12-4V66c0-16-9-30-21-38-7-5-18-10-27-10s-15 1-23 5c-7 3-8 4-12 8-3 3-1 0-3 3l-2 2c-2 2-5 7-7 11s-5 12-5 19zm36 71c0-13 15-19 24-11 8 9 2 21-5 23v24c-2 5-8 6-9 1-1-2-1-22-1-25-5-2-9-9-9-12zM60 93V70c0-5 1-10 3-13 0-2 1-4 2-5 9-14 28-19 44-7s9 36 11 49H61v-1h-1z" />
      </g>
      <g class="sprite" id="c26">
         <path fill="none" d="M0 0h180v216H0z" />
         <path d="M40 66v28c-3 0-5 0-8 2-4 2-8 5-9 9-1 1-2 4-2 7v69c0 9 9 18 18 18h102c3 0 6-1 7-1 6-3 11-10 11-17v-69c0-6-3-11-7-14-4-4-8-4-12-4V66c0-16-9-30-21-38-7-5-18-10-27-10s-15 1-23 5c-7 3-8 4-12 8-3 3-1 0-3 3l-2 2c-2 2-5 7-7 11s-5 12-5 19zm36 71c0-13 15-19 24-11 8 9 2 21-5 23v24c-2 5-8 6-9 1-1-2-1-22-1-25-5-2-9-9-9-12zM60 93V70c0-5 1-10 3-13 0-2 1-4 2-5 9-14 28-19 44-7s9 36 11 49H61v-1h-1z" />
      </g>
      <g class="sprite" id="c27">
         <path fill="none" d="M0 0h180v216H0z" />
         <path fill="#C92F2F" d="M40 66v28c-3 0-5 0-8 2-4 2-8 5-9 9-1 1-2 4-2 7v69c0 9 9 18 18 18h102c3 0 6-1 7-1 6-3 11-10 11-17v-69c0-6-3-11-7-14-4-4-8-4-12-4V66c0-16-9-30-21-38-7-5-18-10-27-10s-15 1-23 5c-7 3-8 4-12 8-3 3-1 0-3 3l-2 2c-2 2-5 7-7 11s-5 12-5 19zm36 71c0-13 15-19 24-11 8 9 2 21-5 23v24c-2 5-8 6-9 1-1-2-1-22-1-25-5-2-9-9-9-12zM60 93V70c0-5 1-10 3-13 0-2 1-4 2-5 9-14 28-19 44-7s9 36 11 49H61v-1h-1z" />
      </g>
      <g class="sprite" id="c40">
         <path fill="none" d="M0 0h180v216H0z" />
         <path fill="#B3B3B3" d="M115 64c-7 1-13 6-15 13l-8 17c-5 13-4 28 3 41 4 7 6 13 7 18 0 2 1 4 3 4l29 5c2 0 3-1 4-2l1-1 5-15c9-24 5-51-10-72-4-6-11-9-19-8zm12 13c14 19 17 42 9 64l-4 11-22-3c-1-6-3-12-7-19-6-10-7-22-3-32l8-18c1-4 5-6 9-7s8 1 10 4zM103 160c-2 0-4 1-5 4l-3 13c-1 6 0 11 3 16s8 8 13 9c6 1 12 0 16-3 1-1 2-1 3-2 3-3 5-7 6-12l3-15c0-1 0-2-1-3s-2-2-3-2l-32-5zm24 24c0 3-2 6-5 8-2 2-6 2-9 2-3-1-6-3-8-6-2-2-2-6-1-9l2-10 23 4-2 11z" />
         <path d="M127 184c0 3-2 6-5 8-2 2-6 2-9 2-3-1-6-3-8-6-2-2-2-6-1-9l2-10 23 4-2 11zM127 77c14 19 17 42 9 64l-4 11-22-3c-1-6-3-12-7-19-6-10-7-22-3-32l8-18c1-4 5-6 9-7s8 1 10 4z" />
         <path fill="#B3B3B3" d="M50 20C33 39 27 66 34 90l4 16c0 2 2 3 4 3l29-2c1 0 2 0 3-1s1-2 1-3c1-5 4-11 9-17 8-12 10-27 6-40l-6-19c-2-7-8-12-15-13-7-2-14 1-19 6zm26 10l5 18c4 11 2 23-5 33-4 6-7 12-9 18l-22 1-3-12c-6-22 0-45 15-62 2-3 6-5 10-4s8 4 9 8zM61 152c5-1 9-3 12-6 1-1 2-1 3-2 3-5 5-10 4-16l-2-14c0-2-2-4-5-4l-32 2c-1 0-2 1-3 2s-1 2-1 3l1 15c1 6 3 11 8 15 4 4 10 5 15 5zm-14-20l-1-11 24-2 1 10c1 3 0 7-2 9-2 3-5 5-9 5-3 0-6-1-9-3-2-2-4-5-4-8z" />
         <path d="M47 132l-1-11 24-2 1 10c1 3 0 7-2 9-2 3-5 5-9 5-3 0-6-1-9-3-2-2-4-5-4-8zM76 30l5 18c4 11 2 23-5 33-4 6-7 12-9 18l-22 1-3-12c-6-22 0-45 15-62 2-3 6-5 10-4s8 4 9 8z" />
      </g>
      <g class="sprite" id="c41">
         <path fill="none" d="M0 0h180v216H0z" />
         <path fill="#FFBFBF" d="M115 64c-7 1-13 6-15 13l-8 17c-5 13-4 28 3 41 4 7 6 13 7 18 0 2 1 4 3 4l29 5c2 0 3-1 4-2l1-1 5-15c9-24 5-51-10-72-4-6-11-9-19-8zm12 13c14 19 17 42 9 64l-4 11-22-3c-1-6-3-12-7-19-6-10-7-22-3-32l8-18c1-4 5-6 9-7s8 1 10 4zM103 160c-2 0-4 1-5 4l-3 13c-1 6 0 11 3 16s8 8 13 9c6 1 12 0 16-3 1-1 2-1 3-2 3-3 5-7 6-12l3-15c0-1 0-2-1-3s-2-2-3-2l-32-5zm24 24c0 3-2 6-5 8-2 2-6 2-9 2-3-1-6-3-8-6-2-2-2-6-1-9l2-10 23 4-2 11z" />
         <path fill="#CF0000" d="M127 184c0 3-2 6-5 8-2 2-6 2-9 2-3-1-6-3-8-6-2-2-2-6-1-9l2-10 23 4-2 11zM127 77c14 19 17 42 9 64l-4 11-22-3c-1-6-3-12-7-19-6-10-7-22-3-32l8-18c1-4 5-6 9-7s8 1 10 4z" />
         <path fill="#FFBFBF" d="M50 20C33 39 27 66 34 90l4 16c0 2 2 3 4 3l29-2c1 0 2 0 3-1s1-2 1-3c1-5 4-11 9-17 8-12 10-27 6-40l-6-19c-2-7-8-12-15-13-7-2-14 1-19 6zm26 10l5 18c4 11 2 23-5 33-4 6-7 12-9 18l-22 1-3-12c-6-22 0-45 15-62 2-3 6-5 10-4s8 4 9 8zM61 152c5-1 9-3 12-6 1-1 2-1 3-2 3-5 5-10 4-16l-2-14c0-2-2-4-5-4l-32 2c-1 0-2 1-3 2s-1 2-1 3l1 15c1 6 3 11 8 15 4 4 10 5 15 5zm-14-20l-1-11 24-2 1 10c1 3 0 7-2 9-2 3-5 5-9 5-3 0-6-1-9-3-2-2-4-5-4-8z" />
         <path fill="#CF0000" d="M47 132l-1-11 24-2 1 10c1 3 0 7-2 9-2 3-5 5-9 5-3 0-6-1-9-3-2-2-4-5-4-8zM76 30l5 18c4 11 2 23-5 33-4 6-7 12-9 18l-22 1-3-12c-6-22 0-45 15-62 2-3 6-5 10-4s8 4 9 8z" />
      </g>
      <g class="sprite" id="info">
         <path fill="none" d="M0 0h180v216H0z" />
         <ellipse fill="#fff" stroke="#000" stroke-width="4.252" cx="90" cy="108" rx="81" ry="79" />
         <path d="M64 108c0-7-1-7 3-11 4-5 10-10 16-13 3-2 7-4 11-4 8 0 13 7 11 15-2 10-13 44-17 57-1 4 1 5 3 5 4-1 12-14 16-16 0 6-1 7-4 11-1 1-2 3-3 4l-2 2c-12 15-34 15-34-1 0-6 19-58 19-63 0-1-2-2-3-2-6 1-13 13-16 16zm40-37c-15 0-18-24 1-24 3 0 6 2 8 4 7 7 2 20-9 20z" />
      </g>
      <g class="sprite" id="c50">
         <path fill="none" d="M0 0h180v216H0z" />
         <path fill="#CF0000" d="M0 105v7c0 1 0 1 1 2 5 1 4 3 5 8-1 36 37 50 63 28 9-7 11-16 14-28 2-4 4-5 7-5v-11c-5 0-9-1-11-2-21-14-54-7-71-4-6 1-8 0-8 5zm75 8c3 6-1 21-5 27-17 24-60 18-58-19 1-6 3-12 9-15 11-7 48-6 54 7zm105-8v7c0 1 0 1-1 2-5 1-4 3-5 8 1 36-37 50-63 28-9-7-11-16-14-28-2-4-4-5-7-5v-11c5 0 9-1 11-2 21-14 54-7 71-4 6 1 8 0 8 5zm-75 8c-3 6 1 21 5 27 17 24 60 18 58-19-1-6-3-12-9-15-11-7-48-6-54 7zM5 99c4-1 6-1 10-1 3-6 20-31 24-32 4 0 7 6 9 10 3 5 8 3 8-1 0-5-8-22-18-19-8 2-27 33-33 43zm170 0c-4-1-6-1-10-1-3-6-20-31-24-32-4 0-7 6-9 10-3 5-8 3-8-1 0-5 8-22 18-19 8 2 27 33 33 43z" />
      </g>
      <g class="sprite" id="c51">
         <path fill="none" d="M0 0h180v216H0z" />
         <path d="M46 185l86-146c5-9-8-17-14-8L40 164l-23-54c-4-9-18-3-14 7l29 67c3 6 11 7 14 1z" />
      </g>
      <g class="sprite" id="c52">
         <path fill="none" d="M0 0h180v216H0z" />
         <path fill="#0D9900" d="M91 185l86-146c5-9-9-17-14-8L85 164l-10-23-9 17 11 26c2 6 10 7 14 1zM46 185l86-146c5-9-8-17-14-8L40 164l-23-54c-4-9-18-3-14 7l29 67c3 6 11 7 14 1z" />
      </g>
      <g class="sprite" id="c30">
         <path fill="none" d="M0 0h180v216H0z" />
         <path d="M174 187c1-5-1-9-3-13l-15-34c-4-10-5-8-17-15-4-2-7-4-11-6-3-1-7-5-10-3-14 10-33 13-50 4-7-4-6-6-10-4s-7 4-11 6c-3 2-7 4-10 5-4 2-8 4-10 7-2 2-8 18-10 22-3 8-7 15-10 23-2 5-2 9 2 12 3 4 8 3 13 3h128c10 0 22 2 24-7zM86 22c-14 1-22 7-27 15-5 9-8 22-7 35 2 22 19 44 42 41 10-2 20-8 25-17 7-10 9-19 9-33-1-27-15-43-42-41z" />
      </g>
      <g class="sprite" id="c31">
         <path fill="none" d="M0 0h180v216H0z" />
         <path d="M114 132c10-1 12-6 12-17V87c0-10 1-18-8-21-4-1-52-1-56 0-9 3-8 10-8 21v28c0 11 2 16 12 17v60h48v-60zM54 144c-8-1-11-4-12-11s0-16 0-23c0-13-2-33 1-44-4 0-25-1-28 0-10 3-9 10-9 20v29c0 11 2 16 12 17v60h36v-48zM137 66c3 11 1 50 1 64 0 9-3 13-12 14v48h36v-60c9-1 12-5 12-14V80c0-10-4-14-14-14h-23zM72 45c4 22 39 18 36-6-4-23-39-19-36 6zM60 45c4-24-32-30-36-7-4 24 31 30 36 7zM120 43c2 23 38 21 36-3-2-23-38-21-36 3z" />
      </g>
      <g class="sprite" id="c32">
         <path fill="none" d="M0 0h180v216H0z" />
         <path d="M27 65l63-37 63 37-63 37-63-37zm-12 0l75 43 75-43-75-43-75 43z" />
         <path d="M58 65l32 18 32-18-32-18zM90 108L15 65v86l75 43v-86zm-69 40V75l63 36v74l-63-37z" />
         <path d="M69 120l-32-18v37l32 18zM90 108v86l75-43V65l-75 43zm6 77v-74l63-36v73l-63 37z" />
         <path d="M111 120v37l32-18v-37z" />
      </g>
      <g class="sprite" id="c33">
         <path fill="none" d="M0 0h180v216H0z" />
         <path d="M81 114c0 6 3 7 9 9 11 5 27 9 27 25 0 8-1 13-6 19-3 3-10 6-16 6v11H85v-11c-8 0-16-5-20-13-1-2-2-6-2-8 3 0 11-3 14-3 1 11 14 15 21 10 3-2 3-5 3-9 0-12-36-7-36-32 0-7 2-13 6-17s9-7 14-7v-9h10v9c9 0 18 8 20 18l-13 5c-1-3-2-5-3-7-7-7-18-3-18 4zm-67 47c0 9 2 19 9 24 2 2 2 2 5 4 8 4 22 5 33 5h57c15 0 29-1 39-9 20-15 1-60-7-74-1-2-2-3-3-5s-2-3-3-5c-6-8-9-11-15-18-2-2-7-7-10-7H61c-3 0-7 5-9 7-2 1-4 4-6 6-5 5-13 16-16 22 0 1-1 1-1 2-7 14-15 32-15 48zM61 54h58c2 0 7-6 8-7 2-1 5-6 6-8 2-4 4-8 3-12-2-4-6-5-11-5-8 0-19 6-26 9-8 3-9 4-18 0-8-4-18-9-27-9-5 0-8 2-10 5-3 10 15 27 17 27zM58 64c0 4 1 7 7 7h50c9 0 9-8 6-10-1-1-2-2-4-2H63c-2 0-3 1-4 2 0 0-1 2-1 3z" />
      </g>
      <g class="sprite" id="varita">
         <path fill="none" d="M0 0h180v216H0z" />
         <path fill="#fff" d="M180 189L90 95l-12 12 90 93z" />
         <path fill="#fff" d="M62 129l8-44 43-6-38-20 7-43-31 30-39-20 19 39L0 95l43-6zM122 62l9-13 14 5-9-12 9-13-15 5-9-12v15l-14 5 15 5zM25 170l9-10 12 5-7-11 9-10-13 3-7-12-1 14-13 2 12 6zM60 187l8-3 6 6-1-9 8-3-9-2-1-8-4 7-8-1 6 6z" />
      </g>
      <g class="sprite" id="campana-1">
         <path fill="none" d="M0 0h180v216H0z" />
         <path fill="#00293d" d="M90 197c12 0 22-10 22-22h51c13 0 10-23 4-29-4-4-8-6-12-10-20-30 3-77-50-93 1-2 2-5 2-7 0-10-8-17-17-17s-17 7-17 17c0 2 1 5 2 7-53 16-30 63-50 93-4 4-8 6-12 10-6 6-9 29 4 29h51c0 12 10 22 22 22zm0-155c-4 0-7-3-7-6 0-4 3-7 7-7s7 3 7 7c0 3-3 6-7 6zm71 122c0-11-2-10-9-16-24-21-12-58-28-80-16-21-52-21-68 0-16 22-4 59-28 80-7 6-9 5-9 16h142zm-60 11c0 15-22 15-22 0h22z" />
      </g>
      <g class="sprite" id="campana-2">
         <path fill="none" d="M0 0h180v216H0z" />
         <path fill="#003D5C" d="M90 197c12 0 22-10 22-22h51c13 0 10-23 4-29-4-4-8-6-12-10-20-30 3-77-50-93 1-2 2-5 2-7 0-10-8-17-17-17s-17 7-17 17c0 2 1 5 2 7-53 16-30 63-50 93-4 4-8 6-12 10-6 6-9 29 4 29h51c0 12 10 22 22 22z" />
         <path fill="#fff" d="M161 164c0-11-2-10-9-16-24-21-12-58-28-80-16-21-52-21-68 0-16 22-4 59-28 80-7 6-9 5-9 16h142zM101 175c0 15-22 15-22 0h22zM90 42c-4 0-7-3-7-6 0-4 3-7 7-7s7 3 7 7c0 3-3 6-7 6z" />
      </g>
      <g class="sprite" id="menu-ppal-1">
         <path fill="none" d="M170 216h10V0H0v59h170z" />
         <rect fill="#003D5C" x="5" y="37" width="170" height="31.065" rx="16" ry="16" />
         <rect fill="#003D5C" x="5" y="92" width="170" height="31.065" rx="16" ry="16" />
         <rect fill="#003D5C" x="5" y="148" width="170" height="31.065" rx="16" ry="16" />
      </g>
      <g class="sprite" id="menu-ppal-2">
         <path fill="none" d="M170 216h10V0H0v59h170z" />
         <rect fill="#fff" x="5" y="37" width="170" height="31.065" rx="16" ry="16" />
         <rect fill="#fff" x="5" y="92" width="170" height="31.065" rx="16" ry="16" />
         <rect fill="#fff" x="5" y="148" width="170" height="31.065" rx="16" ry="16" />
      </g>
      <g class="sprite" id="semaforo-1">
         <path fill="none" d="M0 0h180v216H0z" />
         <circle cx="90" cy="108" r="90" />
         <circle fill="#0f0" cx="90" cy="108" r="41" />
      </g>
      <g class="sprite" id="semaforo-2">
         <path fill="none" d="M0 0h180v216H0z" />
         <circle cx="90" cy="108" r="90" />
         <circle fill="#ff0" cx="90" cy="108" r="41" />
      </g>
      <g class="sprite" id="semaforo-3">
         <path fill="none" d="M0 0h180v216H0z" />
         <circle cx="90" cy="108" r="90" />
         <circle fill="red" cx="90" cy="108" r="41" />
      </g>
      <g class="sprite" id="home">
         <path fill="none" d="M0 0h180v216H0z" />
         <path fill="#fff" d="M117 58v-6c0-5 4-8 9-8h10c5 0 9 3 9 8v34l14 15c5 4 5 11 0 15h-14v55c0 5-5 9-10 9h-27v-46c0-5-4-9-9-9H81c-5 0-9 4-9 9v46H45c-5 0-10-4-10-9v-55H21c-5-4-5-11 0-15l61-62c4-4 12-4 16 0l19 19z" />
      </g>
      <g class="sprite" id="indicadores">
         <path fill="none" d="M0 0h180v216H0z" />
         <path fill="#003D5C" d="M13 179h154v-6H19V37h-6z" />
         <path fill="#003D5C" d="M167 78v83h-30V78c0-3 3-5 5-5h20c2 0 5 2 5 5zM131 42v119h-29V42c0-2 3-5 5-5h19c2 0 5 3 5 5zM96 113v48H66v-48c0-2 3-5 6-5h19c2 0 5 3 5 5zM60 149v12H31v-12c0-3 3-6 5-6h19c3 0 5 3 5 6z" />
      </g>
      <g class="sprite" id="btn-restablecer">
         <circle fill="#fff" transform="matrix(-0.538618 0.538618 -0.538618 -0.538618 90.0002 108)" r="25.2"/>
         <path fill="#fff" d="M115.174 133.174c1.835,-1.821 4.427,-1.042 6.67,-0.73l26.794 3.434c1.857,0.227 5.464,0.441 6.691,1.445 1.253,1.025 1.528,2.197 1.522,3.331 -0.009,1.443 -0.647,2.133 -1.866,3.348 -2.242,2.238 -7.387,7.388 -9.627,9.628 0.656,0.657 22.138,21.911 23.011,23.076 1.108,1.48 0.986,3.544 -0.372,4.977 -1.438,1.438 -2.876,2.876 -4.314,4.314 -1.433,1.358 -3.497,1.48 -4.977,0.372 -1.165,-0.873 -22.419,-22.355 -23.076,-23.011 -2.24,2.24 -7.39,7.385 -9.628,9.627 -1.215,1.219 -1.905,1.857 -3.348,1.866 -1.134,0.006 -2.306,-0.269 -3.331,-1.522 -1.004,-1.227 -1.218,-4.834 -1.445,-6.691l-3.434 -26.794c-0.312,-2.243 -1.091,-4.835 0.73,-6.67z"/>
         <path fill="#fff" d="M64.826 133.173c-1.835,-1.82 -4.428,-1.041 -6.67,-0.729l-26.794 3.434c-1.857,0.226 -5.464,0.441 -6.691,1.445 -1.253,1.024 -1.529,2.196 -1.522,3.33 0.009,1.444 0.647,2.133 1.865,3.349 2.243,2.237 7.388,7.387 9.628,9.627 -0.656,0.658 -22.138,21.911 -23.011,23.076 -1.109,1.481 -0.986,3.544 0.372,4.977 1.438,1.438 2.876,2.876 4.314,4.314 1.433,1.358 3.497,1.481 4.977,0.372 1.165,-0.872 22.419,-22.355 23.076,-23.011 2.24,2.24 7.39,7.385 9.628,9.628 1.215,1.218 1.905,1.856 3.348,1.865 1.134,0.007 2.306,-0.268 3.33,-1.522 1.004,-1.227 1.219,-4.834 1.446,-6.691l3.433 -26.793c0.312,-2.243 1.091,-4.835 -0.729,-6.671z"/>
         <path fill="#fff" d="M64.826 82.826c1.82,-1.835 1.041,-4.428 0.729,-6.67l-3.433 -26.794c-0.227,-1.857 -0.442,-5.464 -1.446,-6.691 -1.024,-1.253 -2.196,-1.529 -3.33,-1.522 -1.443,0.009 -2.133,0.647 -3.348,1.865 -2.238,2.243 -7.388,7.388 -9.628,9.628 -0.657,-0.656 -21.911,-22.138 -23.076,-23.011 -1.48,-1.109 -3.544,-0.986 -4.977,0.372 -1.438,1.438 -2.876,2.876 -4.314,4.314 -1.358,1.433 -1.481,3.497 -0.372,4.977 0.873,1.165 22.355,22.419 23.011,23.076 -2.24,2.24 -7.385,7.39 -9.628,9.628 -1.218,1.215 -1.856,1.905 -1.865,3.348 -0.007,1.134 0.269,2.306 1.522,3.33 1.227,1.004 4.834,1.219 6.691,1.446l26.794 3.433c2.242,0.312 4.835,1.091 6.67,-0.729z"/>
         <path fill="#fff" d="M115.173 82.826c1.836,1.82 4.428,1.041 6.671,0.729l26.793 -3.433c1.857,-0.227 5.464,-0.442 6.691,-1.446 1.254,-1.024 1.529,-2.196 1.522,-3.33 -0.009,-1.443 -0.647,-2.133 -1.865,-3.348 -2.243,-2.238 -7.388,-7.388 -9.628,-9.628 0.656,-0.657 22.139,-21.911 23.011,-23.076 1.109,-1.48 0.986,-3.544 -0.372,-4.977 -1.438,-1.438 -2.876,-2.876 -4.314,-4.314 -1.433,-1.358 -3.496,-1.481 -4.977,-0.372 -1.165,0.873 -22.418,22.355 -23.076,23.011 -2.24,-2.24 -7.39,-7.385 -9.627,-9.628 -1.216,-1.218 -1.905,-1.856 -3.349,-1.865 -1.134,-0.007 -2.306,0.269 -3.33,1.522 -1.004,1.227 -1.219,4.834 -1.445,6.691l-3.434 26.794c-0.312,2.242 -1.091,4.835 0.729,6.67z"/>
      </g>
      <g class="sprite" id="btn-maximizar">
         <circle fill="#fff" transform="matrix(-0.270204 0.270204 -0.270204 -0.270204 90.0002 108)" r="25.2"/>
         <path fill="#fff" d="M165.84 183.84c1.821,-1.836 1.041,-4.428 0.729,-6.67l-3.433 -26.794c-0.227,-1.858 -0.442,-5.464 -1.446,-6.691 -1.024,-1.254 -2.196,-1.529 -3.33,-1.522 -1.444,0.009 -2.133,0.647 -3.349,1.865 -2.237,2.243 -7.387,7.388 -9.627,9.628 -0.657,-0.656 -21.911,-22.138 -23.076,-23.011 -1.481,-1.109 -3.544,-0.987 -4.977,0.372 -1.438,1.438 -2.876,2.876 -4.314,4.314 -1.359,1.433 -1.481,3.496 -0.372,4.977 0.873,1.165 22.355,22.419 23.011,23.076 -2.24,2.24 -7.385,7.39 -9.628,9.627 -1.218,1.216 -1.856,1.905 -1.865,3.349 -0.007,1.134 0.268,2.306 1.522,3.33 1.227,1.004 4.833,1.219 6.691,1.446l26.794 3.433c2.242,0.312 4.834,1.092 6.67,-0.729z"/>
         <path fill="#fff" d="M14.16 183.839c-1.821,-1.835 -1.041,-4.427 -0.729,-6.67l3.433 -26.794c0.227,-1.857 0.442,-5.463 1.446,-6.691 1.024,-1.253 2.196,-1.529 3.33,-1.521 1.443,0.009 2.133,0.646 3.348,1.864 2.238,2.243 7.388,7.388 9.628,9.628 0.657,-0.656 21.911,-22.138 23.076,-23.011 1.48,-1.108 3.544,-0.986 4.977,0.372 1.438,1.438 2.876,2.876 4.314,4.314 1.358,1.433 1.48,3.497 0.372,4.977 -0.873,1.165 -22.355,22.419 -23.011,23.076 2.24,2.24 7.385,7.39 9.628,9.628 1.218,1.215 1.855,1.905 1.865,3.348 0.007,1.134 -0.269,2.306 -1.522,3.331 -1.227,1.004 -4.834,1.218 -6.691,1.445l-26.794 3.434c-2.242,0.311 -4.835,1.091 -6.67,-0.73z"/>
         <path fill="#fff" d="M14.16 32.16c1.835,-1.821 4.428,-1.041 6.67,-0.729l26.794 3.433c1.857,0.227 5.464,0.442 6.691,1.446 1.253,1.024 1.529,2.196 1.522,3.33 -0.01,1.443 -0.647,2.133 -1.865,3.348 -2.243,2.238 -7.388,7.388 -9.628,9.628 0.656,0.657 22.138,21.911 23.011,23.076 1.108,1.48 0.986,3.544 -0.372,4.977 -1.438,1.438 -2.876,2.876 -4.314,4.314 -1.433,1.358 -3.497,1.48 -4.977,0.372 -1.165,-0.873 -22.419,-22.355 -23.076,-23.011 -2.24,2.24 -7.39,7.385 -9.628,9.628 -1.215,1.218 -1.905,1.855 -3.348,1.865 -1.134,0.007 -2.306,-0.269 -3.33,-1.522 -1.004,-1.227 -1.219,-4.834 -1.446,-6.691l-3.433 -26.794c-0.312,-2.242 -1.092,-4.835 0.729,-6.67z"/>
         <path fill="#fff" d="M165.839 32.16c1.821,1.835 1.041,4.428 0.73,6.67l-3.434 26.794c-0.227,1.857 -0.441,5.464 -1.445,6.691 -1.025,1.253 -2.197,1.529 -3.331,1.522 -1.443,-0.01 -2.133,-0.647 -3.348,-1.865 -2.238,-2.243 -7.388,-7.388 -9.628,-9.628 -0.657,0.656 -21.911,22.138 -23.076,23.011 -1.48,1.108 -3.544,0.986 -4.977,-0.372 -1.438,-1.438 -2.876,-2.876 -4.314,-4.314 -1.358,-1.433 -1.48,-3.497 -0.372,-4.977 0.873,-1.165 22.355,-22.419 23.011,-23.076 -2.24,-2.24 -7.385,-7.39 -9.628,-9.628 -1.218,-1.215 -1.855,-1.905 -1.864,-3.348 -0.008,-1.134 0.268,-2.306 1.521,-3.33 1.228,-1.004 4.834,-1.219 6.691,-1.446l26.794 -3.433c2.243,-0.312 4.835,-1.092 6.67,0.729z"/>
      </g>
      <g class="sprite" id="btn-duplicar" >
         <g>
            <g>
               <path fill="#00293d" d="M480.7,11H130.4c-11.3,0-20.4,9.1-20.4,20.4v60.3H31.5c-11.3,0-20.4,9.1-20.4,20.4v368.5c0,11.3,9.1,20.4,20.4,20.4 h350.3c11.3,0,20.4-9.1,20.4-20.4v-60.3h78.5c11.3,0,20.4-9.1,20.4-20.4V31.4C501.1,20.1,491.9,11,480.7,11z M361.3,460.2H51.9 V132.5h309.4V460.2z M460.2,379.5h-58.1V112.1c0-11.3-9.1-20.4-20.4-20.4h-231V51.8h309.4V379.5z"/>
               <path fill="#003D5C" d="m127.8,242.6h157.7c11.3,0 20.4-9.1 20.4-20.4 0-11.3-9.1-20.4-20.4-20.4h-157.7c-11.3,0-20.4,9.1-20.4,20.4 0,11.3 9.1,20.4 20.4,20.4z"/>
               <path d="m127.8,390.9h157.7c11.3,0 20.4-9.1 20.4-20.4 0-11.3-9.1-20.4-20.4-20.4h-157.7c-11.3,0-20.4,9.1-20.4,20.4 0,11.2 9.1,20.4 20.4,20.4z"/>
            </g>
         </g>
      </g>
      <g class="sprite" id="btn-camara">
         <path style="fill:#999999;" d="M373.21,501.801H138.79c-18.07,0-32.718-14.648-32.718-32.718v-65.194h299.857v65.194C405.928,487.153,391.28,501.801,373.21,501.801z"/>
         <rect x="106.072" y="61.195" style="fill:#50A5DC;" width="299.857" height="342.693"/>
         <path style="fill:#999999;" d="M405.928,61.195H106.072V42.917c0-18.07,14.648-32.718,32.718-32.718h234.422c18.069,0,32.717,14.648,32.717,32.718V61.195z"/>
         <path style="fill:#4D4D4D;" d="M258.04,473.243h-4.08c-11.266,0-20.398-9.132-20.398-20.398l0,0c0-11.266,9.132-20.398,20.398-20.398h4.08c11.266,0,20.398,9.132,20.398,20.398l0,0C278.438,464.111,269.306,473.243,258.04,473.243z"/>
         <path d="M95.873,469.084c0,23.664,19.252,42.916,42.917,42.916h234.422c23.664,0,42.916-19.252,42.916-42.916V42.916C416.128,19.252,396.875,0,373.21,0H138.79c-23.665,0-42.917,19.252-42.917,42.916V469.084z M116.271,71.394h279.458v322.295H116.271V71.394z M116.271,42.916c0-12.417,10.101-22.518,22.519-22.518h234.422c12.417,0,22.518,10.101,22.518,22.518v8.08H116.271V42.916z M395.729,469.084c0,12.417-10.101,22.518-22.519,22.518H138.79c-12.418,0-22.519-10.101-22.519-22.518v-54.996h279.458V469.084z"/>
         <path d="M253.96,483.442h4.08c16.872,0,30.598-13.726,30.598-30.598s-13.726-30.598-30.598-30.598h-4.08c-16.872,0-30.598,13.726-30.598,30.598S237.089,483.442,253.96,483.442z M253.96,442.645h4.08c5.624,0,10.199,4.575,10.199,10.199s-4.575,10.199-10.199,10.199h-4.08c-5.624,0-10.199-4.575-10.199-10.199S248.336,442.645,253.96,442.645z"/>
         <path d="M228.234,135.649h-49.748c-5.633,0-10.199,4.567-10.199,10.199v49.748c0,5.632,4.566,10.199,10.199,10.199c5.633,0,10.199-4.567,10.199-10.199v-39.548h39.548c5.633,0,10.199-4.567,10.199-10.199C238.433,140.217,233.867,135.649,228.234,135.649z"/>
         <path d="M228.234,290.677h-39.548v-39.548c0-5.632-4.566-10.199-10.199-10.199c-5.633,0-10.199,4.567-10.199,10.199v49.748c0,5.632,4.566,10.199,10.199,10.199h49.748c5.633,0,10.199-4.567,10.199-10.199C238.433,295.245,233.867,290.677,228.234,290.677z"/>
         <path d="M283.766,156.048h39.548v39.548c0,5.632,4.566,10.199,10.199,10.199s10.199-4.567,10.199-10.199v-49.748c0-5.632-4.566-10.199-10.199-10.199h-49.748c-5.633,0-10.199,4.567-10.199,10.199C273.567,151.481,278.133,156.048,283.766,156.048z"/>
         <path d="M283.766,311.076h49.748c5.633,0,10.199-4.567,10.199-10.199v-49.748c0-5.632-4.566-10.199-10.199-10.199s-10.199,4.567-10.199,10.199v39.548h-39.548c-5.633,0-10.199,4.567-10.199,10.199C273.567,306.509,278.133,311.076,283.766,311.076z"/>
         <path d="M293.737,365.131h-7.139c-5.633,0-10.199,4.567-10.199,10.199s4.566,10.199,10.199,10.199h7.139c5.633,0,10.199-4.567,10.199-10.199S299.37,365.131,293.737,365.131z"/>
         <path d="M375.331,365.131h-42.837c-5.633,0-10.199,4.567-10.199,10.199s4.566,10.199,10.199,10.199h42.837c5.633,0,10.199-4.567,10.199-10.199S380.964,365.131,375.331,365.131z"/>
      </g>
      <g class="sprite" id="btn-documento">
         <g fill-rule="evenodd">
         <path d="m5.11 0a5.07 5.07 0 0 0 -5.11 5v53.88a5.07 5.07 0 0 0 5.11 5.12h45.78a5.07 5.07 0 0 0 5.11-5.12v-38.6l-18.94-20.28z" fill="#107cad"/>
         <path d="m56 20.35v1h-12.82s-6.31-1.26-6.13-6.71c0 0 .21 5.71 6 5.71z" fill="#084968"/>
         <path d="m37.07 0v14.56a5.78 5.78 0 0 0 6.11 5.79h12.82z" fill="#90d0fe" opacity=".5"/>
         </g>
         <path d="m14.24 53.86h-3a1.08 1.08 0 0 1 -1.08-1.08v-9.85a1.08 1.08 0 0 1 1.08-1.08h3a6 6 0 1 1 0 12zm0-10.67h-2.61v9.34h2.61a4.41 4.41 0 0 0 4.61-4.66 4.38 4.38 0 0 0 -4.61-4.68zm14.42 10.89a5.86 5.86 0 0 1 -6-6.21 6 6 0 1 1 11.92 0 5.87 5.87 0 0 1 -5.92 6.21zm0-11.09c-2.7 0-4.41 2.07-4.41 4.88s1.71 4.88 4.41 4.88 4.41-2.09 4.41-4.88-1.72-4.87-4.41-4.87zm18.45.38a.75.75 0 0 1 .2.52.71.71 0 0 1 -.7.72.64.64 0 0 1 -.51-.24 4.06 4.06 0 0 0 -3-1.38 4.61 4.61 0 0 0 -4.63 4.88 4.63 4.63 0 0 0 4.63 4.88 4 4 0 0 0 3-1.37.7.7 0 0 1 .51-.24.72.72 0 0 1 .7.74.78.78 0 0 1 -.2.51 5.33 5.33 0 0 1 -4 1.69 6.22 6.22 0 0 1 0-12.43 5.26 5.26 0 0 1 4 1.72z" fill="#ffffff"/>
      </g>
      <g class="sprite" id="btn-imagen">
         <path fill="#000000" fill-rule="evenodd" d="M474.188327,259.775909 L480.842912,259.775909 L477.549999,256.482996 L474.375904,259.65709 C474.321124,259.71187 474.256777,259.751373 474.188327,259.775909 Z M474,258.618781 L474,247.775909 L486,247.775909 L486,254.968826 L483.657827,252.626653 C483.470927,252.439753 483.148791,252.4342 482.953529,252.629462 C482.940375,252.642616 482.928101,252.656403 482.916711,252.670736 C482.913161,252.674075 482.909651,252.677479 482.906183,252.680947 L479.034173,256.552957 L477.918719,255.437503 C477.808988,255.327771 477.655516,255.279359 477.507786,255.29536 C477.387162,255.302309 477.267535,255.351246 477.17513,255.44365 L474,258.618781 Z M482.257125,259.775909 L486,259.775909 L486,256.377007 L485.996984,256.380023 L483.309152,253.692192 L479.74128,257.260064 L482.257125,259.775909 Z M487,259.406871 L487.960593,259.541874 C488.51207,259.619379 489.020377,259.235606 489.097766,258.684953 L490.765938,246.815293 C490.843443,246.263816 490.459671,245.75551 489.909017,245.678121 L478.039358,244.009949 C477.487881,243.932444 476.979574,244.316216 476.902185,244.86687 L476.633887,246.775909 L474.006845,246.775909 C473.449949,246.775909 473,247.226689 473,247.782754 L473,259.769063 C473,260.32596 473.45078,260.775909 474.006845,260.775909 L485.993155,260.775909 C486.550051,260.775909 487,260.325128 487,259.769063 L487,259.406871 Z M487,258.397037 L488.10657,258.552556 L489.776647,246.669339 L477.89343,244.999262 L477.643739,246.775909 L485.993155,246.775909 C486.54922,246.775909 487,247.225857 487,247.782754 L487,258.397037 Z" transform="translate(-473 -244)"/>
      </g>
      <g class="sprite" id="btn-pdf">
         <polygon style="fill:#B12A27;" points="475.435,117.825 475.435,512 47.791,512 47.791,0.002 357.613,0.002 412.491,54.881 	"/>
	      <rect x="36.565" y="34.295" style="fill:#F2F2F2;" width="205.097" height="91.768"/>
	      <g>
		      <g>
			      <path style="fill:#B12A27;" d="M110.132,64.379c-0.905-2.186-2.111-4.146-3.769-5.804c-1.658-1.658-3.694-3.015-6.031-3.92c-2.412-0.98-5.126-1.432-8.141-1.432H69.651v58.195h11.383V89.481h11.157c3.015,0,5.729-0.452,8.141-1.432c2.337-0.905,4.372-2.261,6.031-3.92c1.659-1.658,2.865-3.543,3.769-5.804c0.829-2.186,1.282-4.523,1.282-6.935C111.413,68.902,110.961,66.565,110.132,64.379z M97.844,77.118c-1.508,1.432-3.618,2.186-6.181,2.186H81.034V63.323h10.629c2.563,0,4.674,0.754,6.181,2.261c1.432,1.432,2.186,3.392,2.186,5.804C100.031,73.726,99.277,75.686,97.844,77.118z"/>
			      <path style="fill:#B12A27;" d="M164.558,75.761c-0.075-2.035-0.151-3.844-0.377-5.503c-0.226-1.659-0.603-3.166-1.131-4.598c-0.528-1.357-1.206-2.714-2.111-3.92c-2.035-2.94-4.523-5.126-7.312-6.483c-2.865-1.357-6.257-2.035-10.252-2.035h-20.956v58.195h20.956c3.995,0,7.387-0.678,10.252-2.035c2.789-1.357,5.277-3.543,7.312-6.483c0.905-1.206,1.583-2.563,2.111-3.92c0.528-1.432,0.905-2.94,1.131-4.598c0.226-1.658,0.301-3.468,0.377-5.503c0.075-1.96,0.075-4.146,0.075-6.558C164.633,79.908,164.633,77.721,164.558,75.761z M153.175,88.2c0,1.734-0.151,3.091-0.302,4.297c-0.151,1.131-0.377,2.186-0.678,2.94c-0.301,0.829-0.754,1.583-1.281,2.261c-1.885,2.412-4.749,3.543-8.518,3.543h-8.669V63.323h8.669c3.769,0,6.634,1.206,8.518,3.618c0.528,0.678,0.98,1.357,1.281,2.186s0.528,1.809,0.678,3.015c0.151,1.131,0.302,2.563,0.302,4.221c0.075,1.659,0.075,3.694,0.075,5.955C153.251,84.581,153.251,86.541,153.175,88.2z"/>
			      <path style="fill:#B12A27;" d="M213.18,63.323V53.222h-38.37v58.195h11.383V87.823h22.992V77.646h-22.992V63.323H213.18z"/>
		      </g>
		      <g>
			      <path style="fill:#B12A27;" d="M110.132,64.379c-0.905-2.186-2.111-4.146-3.769-5.804c-1.658-1.658-3.694-3.015-6.031-3.92c-2.412-0.98-5.126-1.432-8.141-1.432H69.651v58.195h11.383V89.481h11.157c3.015,0,5.729-0.452,8.141-1.432c2.337-0.905,4.372-2.261,6.031-3.92c1.659-1.658,2.865-3.543,3.769-5.804c0.829-2.186,1.282-4.523,1.282-6.935C111.413,68.902,110.961,66.565,110.132,64.379z M97.844,77.118c-1.508,1.432-3.618,2.186-6.181,2.186H81.034V63.323h10.629c2.563,0,4.674,0.754,6.181,2.261c1.432,1.432,2.186,3.392,2.186,5.804C100.031,73.726,99.277,75.686,97.844,77.118z"/>
		      </g>
	      </g>
	      <polygon style="opacity:0.08;fill:#040000;" points="475.435,117.825 475.435,512 47.791,512 47.791,419.581 247.705,219.667 259.54,207.832 266.098,201.273 277.029,190.343 289.995,177.377 412.491,54.881 	"/>
	      <polygon style="fill:#771B1B;" points="475.435,117.836 357.599,117.836 357.599,0 	"/>
	      <g>
		      <path style="fill:#F2F2F2;" d="M414.376,370.658c-2.488-4.372-5.88-8.518-10.101-12.287c-3.467-3.166-7.538-6.106-12.137-8.82c-18.544-10.93-45.003-16.207-80.961-16.207h-3.618c-1.96-1.809-3.995-3.618-6.106-5.503c-13.644-12.287-24.499-25.63-32.942-40.48c16.584-36.561,24.499-69.126,23.519-96.867c-0.151-4.674-0.829-9.046-2.035-13.117c-1.809-6.558-4.824-12.363-9.046-17.112c-0.075-0.075-0.075-0.075-0.151-0.151c-6.709-7.538-16.056-11.835-25.555-11.835c-9.574,0-18.393,4.146-24.801,11.76c-6.332,7.538-9.724,17.866-9.875,30.002c-0.226,18.544,1.281,36.108,4.448,52.315c0.301,1.282,0.528,2.563,0.829,3.844c3.166,14.7,7.84,28.645,13.87,41.611c-7.086,14.398-14.247,26.836-19.223,35.279c-3.769,6.408-7.915,13.117-12.212,19.826c-19.373,3.468-35.807,7.689-50.129,12.966c-19.373,7.011-34.902,16.056-46.059,26.836c-7.237,6.935-12.137,14.323-14.549,22.012c-2.563,7.915-2.412,15.83,0.452,22.916c2.638,6.558,7.387,12.061,13.72,15.83c1.508,0.905,3.091,1.658,4.749,2.337c4.825,1.96,10.101,3.015,15.604,3.015c12.74,0,25.856-5.503,36.937-15.378c20.655-18.469,41.988-48.169,54.577-66.94c10.327-1.583,21.559-2.94,34.224-4.297c14.926-1.508,28.118-2.412,40.104-2.865c3.694,3.317,7.237,6.483,10.629,9.498c18.846,16.81,33.168,28.947,46.134,37.465c0,0.075,0.075,0.075,0.151,0.075c5.126,3.392,10.026,6.181,14.926,8.443c5.503,2.563,11.081,3.92,16.81,3.92c7.237,0,14.021-2.186,19.675-6.181c5.729-4.146,9.875-10.101,11.76-16.81C420.18,387.694,418.899,378.724,414.376,370.658z M247.705,219.667c-1.055-9.348-1.508-19.072-1.357-29.324c0.151-9.724,3.694-16.283,8.895-16.283c3.92,0,8.066,3.543,9.95,10.327c0.528,2.035,0.905,4.372,0.98,7.01c0.151,3.166,0.075,6.483-0.075,9.875c-0.452,9.574-2.111,19.75-4.975,30.681c-1.734,7.011-3.995,14.323-6.784,21.936C251.173,243.186,248.911,231.803,247.705,219.667z M121.967,418.073c-1.282-3.166,0.151-9.272,7.991-16.81c11.986-11.458,30.756-20.504,56.914-27.364c-4.975,6.784-9.875,12.966-14.624,18.619c-7.237,8.744-14.172,16.132-20.429,21.71c-5.352,4.824-11.232,7.84-16.81,8.594c-0.98,0.151-1.96,0.226-2.94,0.226C127.168,423.049,123.173,421.089,121.967,418.073z M242.428,337.942l0.528-0.829l-0.829,0.151c0.151-0.377,0.377-0.754,0.603-1.055c3.166-5.352,7.161-12.212,11.458-20.127l0.377,0.829l0.98-2.035c3.166,4.523,6.634,8.971,10.252,13.267c1.734,2.035,3.543,3.995,5.352,5.955l-1.206,0.075l1.055,0.98c-3.091,0.226-6.332,0.528-9.574,0.829c-2.035,0.226-4.146,0.377-6.257,0.603C250.796,337.037,246.499,337.49,242.428,337.942z M369.297,384.98c-8.971-5.729-18.996-13.795-31.359-24.575c17.564,1.809,31.359,5.654,41.159,11.383c4.297,2.488,7.538,5.051,9.724,7.538c3.618,3.844,4.9,7.312,4.221,9.649c-0.603,2.337-3.241,3.92-6.483,3.92c-1.885,0-3.844-0.452-5.88-1.432c-3.468-1.658-7.086-3.694-10.93-6.181C369.598,385.282,369.448,385.131,369.297,384.98z"/>
	      </g>
      </g>
      <g class="sprite" id="activar">
         <path fill="none" d="M0,0h180v216H0z"/>
         <path fill="#1e6dad" d="M158,94c5,3,8,8,8,14s-3,11-8,14L50,185c-5,3-11,3-17,0-5-3-8-9-8-15V46c0-6,3-12,8-15,6-3,12-3,17,0l108,63z"/>
      </g>
      <g class="sprite" id="activar-disabled">
         <path fill="none" d="M0,0h180v216H0z"/>
         <path fill="#c7c7c7" d="M146,96c4,3,7,7,7,12s-3,9-7,12c-29,17-58,34-88,50-4,3-9,3-13,0-4-2-7-7-7-11V57c0-4,3-9,7-11,4-3,9-3,13,0,30,16,59,33,88,50z"/>
      </g>
      <g class="sprite" id="encantar">
         <path fill="none" d="M0 0h180v216H0z"/>
         <path fill="#1e6dad" d="M64,128l8-41,41-6-37-19,7-41-30,29-37-20,19,38L5,97l41-6z"/>
         <path fill="#51A0E1" d="M121,65l9-12,14,4-9-12,9-12-14,5-9-12v15l-14,5,14,4zM28,168l9-9,12,5-7-11,9-10-13,3-6-11-1,13-13,2,12,5zm35,17l7-4,6,6-1-8,7-4-8-1-1-8-4,7-8-1,6,6z"/>
         <rect fill="#103656" transform="rotate(46.058 -63.735 146.882) scale(1.03177)" width="129.189" height="16.617" rx="8" ry="8"/>
      </g>
      <g class="sprite" id="encantar-disabled">
         <path fill="none" d="M0 0h180v216H0z"/>
         <path fill="#c7c7c7" d="M64,128l8-41,41-6-37-19,7-41-30,29-37-20,19,38L5,97l41-6z"/>
         <path fill="#c7c7c7" d="M121,65l9-12,14,4-9-12,9-12-14,5-9-12v15l-14,5,14,4zM28,168l9-9,12,5-7-11,9-10-13,3-6-11-1,13-13,2,12,5zm35,17l7-4,6,6-1-8,7-4-8-1-1-8-4,7-8-1,6,6z"/>
         <rect fill="#c7c7c7" transform="rotate(46.058 -63.735 146.882) scale(1.03177)" width="129.189" height="16.617" rx="8" ry="8"/>
      </g>
      <g class="sprite" id="guardar">
         <path fill="none" d="M0 0h180v216H0z"/>
         <path fill="#1e6dad" d="M35,187h122c7,0,12-5,12-12V41c0-7-5-12-12-12H23c-7,0-12,5-12,12v122l24,24z"/>
         <path fill="#fff" d="M47,119h86c8,0,15-6,15-14V36H33v69c0,8,6,14,14,14zm0,65h84v-42c0-5-3-8-7-8H54c-4,0-7,3-7,8v42z"/>
         <path fill="#103656" d="M60,138h21.395v41.104H60z"/>
         <path fill="#fff" d="M17,36h9.498v9.498H17z"/>
         <path fill="#103656" d="M45,48h89.889v11.52H45zm0,24h89.889v11.52H45zm0,24h89.889v11.52H45z"/>
      </g>
      <g class="sprite" id="guardar-disabled">
         <path fill="none" d="M0 0h180v216H0z"/>
         <path fill="#c7c7c7" d="M35,187h122c7,0,12-5,12-12V41c0-7-5-12-12-12H23c-7,0-12,5-12,12v122l24,24z"/>
         <path fill="#fff" d="M47,119h86c8,0,15-6,15-14V36H33v69c0,8,6,14,14,14zm0,65h84v-42c0-5-3-8-7-8H54c-4,0-7,3-7,8v42z"/>
         <path fill="#c7c7c7" d="M60,138h21.395v41.104H60z"/>
         <path fill="#fff" d="M17,36h9.498v9.498H17z"/>
         <path fill="#c7c7c7" d="M45,48h89.889v11.52H45zm0,24h89.889v11.52H45zm0,24h89.889v11.52H45z"/>
      </g>
      <g class="sprite" id="terminar">
         <path fill="none" d="M0,0h180v216H0z"/>
         <path fill="#1e6dad" d="M114,104h-1V38c0-5-5-10-10-10H77c-5,0-10,5-10,10v66H24l66,68,66-68h-42z"/>
         <path fill="#103656" d="M167,147v28c0,7-6,13-13,13H26c-7,0-13-6-13-13v-28h9v28c0,3,2,5,5,5h126c3,0,5-2,5-5v-28h9z"/>
      </g>
      <g class="sprite" id="terminar-disabled">
         <path fill="none" d="M0,0h180v216H0z"/>
         <path fill="#c7c7c7" d="M114,104h-1V38c0-5-5-10-10-10H77c-5,0-10,5-10,10v66H24l66,68,66-68h-42z"/>
         <path fill="#c7c7c7" d="M167,147v28c0,7-6,13-13,13H26c-7,0-13-6-13-13v-28h9v28c0,3,2,5,5,5h126c3,0,5-2,5-5v-28h9z"/>
      </g>
      <g class="sprite" id="btn-capturar">
         <circle cx="100" cy="100" r="60" fill="white" />
         <circle cx="100" cy="100" r="75" fill="none" stroke="white" stroke-width="10" />
      </g>
      <g class="sprite" id="btn-rotar">
         <path fill="#FFF" d="M59.02 55.4c36.61,-33.66 97.41,-10.9 101.36,39.83l-20 0 29.13 37.98 29.12 -37.98 -20 0c-3.99,-66.76 -83.84,-97.44 -131.93,-53.24l12.32 13.41z"/>
         <path fill="#FFF" d="M140.98 144.6c-36.61,33.66 -97.41,10.9 -101.36,-39.83l20 0 -29.13 -37.98 -29.12 37.98 20 0c3.99,66.76 83.84,97.44 131.93,53.24l-12.32 -13.41z"/>
      </g>
      <g class="sprite" id="btn-cancelar">
         <g class="layer">
            <line fill="none" id="svg_2" marker-end="url(#mkr_start_end_svg)" marker-start="url(#mkr_start_end_svg)" stroke="#ffffff" stroke-width="20" x1="30" x2="170" y1="30" y2="171.92"/>
            <line fill="none" id="svg_4" marker-end="url(#mkr_start_end_svg)" marker-start="url(#mkr_start_end_svg)" stroke="#ffffff" stroke-width="20" transform="rotate(90 100 100)" x1="30" x2="170" y1="30" y2="170"/>
         </g>
         <defs>
            <marker id="mkr_start_end_svg" markerHeight="5" markerUnits="strokeWidth" markerWidth="5" orient="auto" refX="50" refY="50" se_type="mcircle" viewBox="0 0 100 100">
               <circle cx="50" cy="50" fill="#ffffff" id="svg_1" r="5" stroke="#ffffff" stroke-width="10"/>
            </marker>
         </defs>
      </g>
      <g class="sprite" id="btn-subir">
         <line fill="none" id="svg_4" stroke="#ffffff" stroke-width="10" transform="matrix(1 0 0 1 0 0)" x1="30" x2="30" y1="126" y2="177.67"/>
         <line fill="none" id="svg_5" stroke="#ffffff" stroke-width="10" x1="30" x2="169.83" y1="178.33" y2="178.33"/>
         <line fill="none" id="svg_6" stroke="#ffffff" stroke-width="10" transform="matrix(1 0 0 1 0 0)" x1="170" x2="170.5" y1="128" y2="179"/>
         <ellipse cx="31" cy="177.33" fill="#ffffff" id="svg_7" rx="5.5" ry="5.5" stroke="#ffffff"/>
         <ellipse cx="170.17" cy="177.67" fill="#ffffff" id="svg_8" rx="4.67" ry="5" stroke="#ffffff"/>
         <line fill="none" id="svg_10" stroke="#ffffff" stroke-width="30" x1="100" x2="100" y1="47.67" y2="155.67"/>
         <polygon cx="51.17" cy="22" edge="71.21" fill="none" id="svg_11" orient="x" points="113.86789193749428,47.16666507720947 86.0511499941349,62.84953022003174 86.0511499941349,31.48381519317627 113.86789193749428,47.16666507720947 " shape="regularPoly" sides="3" stroke="#ffffff" stroke-width="30" transform="rotate(-90.266 99.9595 47.1667)" x="1" y="1"/>
      </g>
      <g class="sprite" id="btn-plantilla">
         <path fill="none" d="M0 0h180v216H0z"/>
         <path fill="#103656" d="M40 128v43c7-1 13-1 19 0 2 0 23 8 27 10 22 8 17 10 38-5 5-4 9-8 14-11 7-5 17-13 24-19 2-1 5-4 7-6 6-8-1-19-15-12-5 2-33 19-39 23-2 1-2 1-3 3-5 9-12 9-21 4-5-2-11-5-17-8v-3c9 3 22 12 29 10 4-1 8-6 7-11 0-5-5-7-9-9-5-2-9-5-14-7-28-13-12-4-47-2zm-31-2h21v47H9z"/>
         <path fill="#1e6dad" d="M29 100c0 5 4 8 11 8h101c3 0 5-1 7-2 6-3 4-14-6-14H37c-4 0-8 3-8 8zm0-32c0 5 4 8 8 8h105c12 0 13-16-1-16H39c-5 0-10 3-10 8zm0-32c0 5 3 9 8 9h45c5 0 12-7 6-14-1-1-4-2-6-2H37c-4 0-8 3-8 7z"/>
      </g>
      <g class="sprite" id="btn-spelling">
         <path fill="none" d="M0 0h180v216H0z"/>
         <path fill="#103656" d="M24 61l-11-2c1-5 3-8 7-11 3-2 8-3 14-3s10 1 13 2 5 3 6 5 2 6 2 11l-1 15c0 5 1 8 1 10s1 4 2 6H45c-1-1-1-2-2-4v-1c-2 2-5 4-7 5-3 1-5 1-8 1-5 0-9-1-12-4-3-2-5-6-5-10 0-3 1-5 2-7 2-2 4-4 6-5s6-2 10-3c6-1 11-2 13-3v-1c0-3-1-5-2-6s-4-1-7-1c-2 0-4 0-5 1-2 1-3 3-4 5zm18 10c-2 1-4 1-8 2s-6 2-7 2c-2 1-3 3-3 5s1 3 2 4c2 2 4 2 6 2s4 0 6-2c2-1 3-3 3-4 1-1 1-3 1-6v-3zm25 23V28h13v24c4-5 9-7 14-7 6 0 11 2 15 6 4 5 6 11 6 19s-2 14-6 19c-4 4-9 6-15 6-3 0-5 0-8-2-3-1-5-3-7-6v7H67zm13-25c0 5 0 9 2 11 2 4 5 5 9 5 3 0 5-1 7-3 2-3 3-7 3-12s-1-9-3-12c-2-2-4-3-8-3-3 0-5 1-7 3-2 3-3 6-3 11zm88-9l-13 2c0-2-1-4-3-5-1-1-3-2-6-2s-6 1-7 3c-2 2-3 6-3 11 0 6 1 10 3 12 2 3 4 4 7 4s5-1 6-2c2-2 3-4 4-7l13 2c-2 6-4 10-8 13s-9 4-15 4c-7 0-13-2-17-6-5-5-7-11-7-19s2-14 7-18c4-5 10-7 17-7 6 0 11 1 14 4 4 2 6 6 8 11zM27 170c-3-5-9-20-13-23s-12 1-7 9c4 7 9 18 12 25 1 3 2 5 4 6 2 2 5 2 7 0 2-1 2-4 3-6 5-8 41-67 42-68 1-6-6-9-10-5-8 11-27 42-34 55-1 2-3 6-4 7z"/>
         <path fill="#1e6dad" d="M76 170c-2-5-8-20-13-23-4-3-11 1-6 9 4 7 9 18 12 25 1 3 2 5 4 6 2 2 5 2 7 0 2-1 2-4 3-6 5-8 41-67 41-68 2-6-5-9-10-5-7 11-26 42-33 55-1 2-3 6-5 7z"/>
         <path fill="#51A0E1" d="M126 170c-2-5-9-20-13-23s-11 1-6 9c4 7 9 18 12 25 1 3 2 5 4 6 2 2 5 2 7 0 1-1 2-4 3-6 5-8 41-67 41-68 2-6-5-9-10-5-7 11-26 42-33 55-2 2-3 6-5 7z"/>
      </g>
      <g class="sprite" id="btn-clip">
         <path fill="none" d="M0 0h180v216H0z"/>
         <path fill="#1e6dad" d="M161 55c0 4 0 8-2 11-2 4-4 6-6 8-4 5-8 10-13 15l-66 72c-4 5-9 11-14 14-6 4-15 5-23 3-14-5-22-21-16-35 1-4 3-7 5-9s4-5 6-7c18-20 36-39 53-58 5-5 9-10 14-15 0 0 1-1 1-2 1-3-2-5-5-5-2 1-3 3-4 4L62 83c-9 10-18 19-27 29-4 5-16 17-19 22-6 11-6 23-1 34 10 20 37 26 54 10 3-2 5-5 7-7 2-3 5-5 7-8l76-83c3-4 6-7 8-12 9-23-15-47-38-36-3 1-5 2-7 4-3 2-6 6-8 8l-60 66c-4 4-8 10-8 19 0 4 1 8 3 11l7 7c7 4 15 4 22 0 3-1 6-4 8-6l33-36c3-3 8-8 10-11 3-4-1-8-5-6-1 0-8 8-10 10-9 10-17 19-26 29l-8 9c-4 4-12 7-18 5-2-1-5-4-6-5-3-4-2-10-1-14 2-4 4-6 6-8l53-58c3-3 10-12 13-14 6-5 14-6 22-3 5 2 10 8 12 16z"/>
      </g>
      <g class="sprite" id="btn-castigar--todo">
         <rect fill="none" width="180" height="216"/>
         <polygon fill="#CF0000" points="90,178 3,135 3,94 90,136 177,94 177,135 "/>
         <polygon fill="#CF0000" points="90,122 3,80 3,38 90,81 177,38 177,80 "/>
      </g>  
      <g class="sprite" id="btn-anular--castigo">
         <rect fill="none" width="180" height="216"/>
         <polygon fill="#0D9900" points="90,38 3,81 3,122 90,80 177,122 177,81 "/>
         <polygon fill="#0D9900" points="90,94 3,136 3,178 90,135 177,178 177,136 "/>
      </g>
      <g class="sprite" id="btn-accion-dialogo-1">
         <path fill="black" d="M200.9 448.51l0 -149.36 -151.93 -225.79c-6.17,-7.11 -3.52,-26.65 14.48,-27.25l384.92 0c10.45,0 23.73,12.34 14.48,27.25l-151.93 225.79 0 92.72c0,5.48 -2.57,10.62 -6.94,13.96l-75.06 56.65c-4.29,4.79 -25.8,7.96 -28.02,-13.97zm-104.55 -367.44l136.59 203c1.97,2.91 3,6.26 3,9.77l0 119.62 40.1 -30.25 0 -89.37c0,-3.51 1.03,-6.86 3,-9.77l136.42 -203 -319.11 0z"/>
      </g>
      <g class="sprite" id="btn-accion-dialogo-2">
         <path fill="black" d="M255.97 296.03c28.51,0 54.64,-9.15 74.99,-24.36 28.63,8.31 62.69,20.56 82.99,33.51 25.67,16.37 41.27,34.53 47.54,71.63 2.9,17.13 3.56,35.58 4.09,53.38 0.95,32.15 2.93,27.34 -32.3,27.34l-177.31 0 -177.31 0c-35.24,0 -33.25,4.81 -32.3,-27.34 0.53,-17.8 1.19,-36.25 4.08,-53.38 6.27,-37.1 21.88,-55.26 47.54,-71.63 20.3,-12.95 54.36,-25.2 83,-33.51 20.35,15.21 46.48,24.36 74.99,24.36z"/>
         <path fill="black" d="M255.97 54.28c57.14,0 103.46,46.32 103.46,103.47 0,57.14 -46.32,103.46 -103.46,103.46 -57.14,0 -103.46,-46.32 -103.46,-103.46 0,-57.15 46.32,-103.47 103.46,-103.47z"/>
         <polygon fill="white" fill-rule="nonzero" points="347.46,445.93 388.66,445.93 388.66,395.64 438.95,395.64 438.95,354.44 388.66,354.44 388.66,304.15 347.46,304.15 347.46,354.44 297.18,354.44 297.18,395.64 347.46,395.64 "/>
      </g>
      <g class="sprite" id="btn-toggle-clases">
         <path fill="none" d="M0 0h180v216H0z"/>
         <circle fill="#1e6dad" cx="90" cy="108" r="71"/>
         <path fill="#fff" d="M69 107H53c-17 0-12 7-5 15 10 13 19 23 31 34 4 5 7 6 11 6s7-1 11-6c12-11 21-21 31-34 7-8 12-15-5-15h-16c-2-9-2-26-3-35-1-12 0-20-18-21-18 1-17 9-18 21-1 9-1 26-3 35z"/>
      </g>
      <g class="sprite" id="buscar">
         <path fill="none" d="M0 0h180v216H0z"/>
         <rect fill="#1e6dad" transform="rotate(-45 202.309 76.1) scale(1 1.07824)" width="84.272" height="35.692" rx="18" ry="18"/>
         <circle fill="#1e6dad" transform="rotate(45 -57.07 174.361) scale(1.0226)" r="59"/>
         <circle fill="#fff" transform="rotate(45 -57.069 174.361)" r="39"/>
         <path fill="#1e6dad" d="M122 68c6 1 13 12 14 18 2 7 3 24-7 22-7-1-5-8-4-10 1-7-2-14-6-17-8-7-2-13 3-13z"/>
      </g>

      <g class="sprite" id="buscar-disabled">
         <path fill="none" d="M0 0h180v216H0z"/>
         <rect fill="#c7c7c7" transform="rotate(-45 202.309 76.1) scale(1 1.07824)" width="84.272" height="35.692" rx="18" ry="18"/>
         <circle fill="#c7c7c7" transform="rotate(45 -57.07 174.361) scale(1.0226)" r="59"/>
         <circle fill="#fff" transform="rotate(45 -57.069 174.361)" r="39"/>
         <path fill="#c7c7c7" d="M122 68c6 1 13 12 14 18 2 7 3 24-7 22-7-1-5-8-4-10 1-7-2-14-6-17-8-7-2-13 3-13z"/>
      </g>
      <g class="sprite" id="duplicar-registro-success">
         <path style="fill:#1e6dad;" d="M213.333,0C95.518,0,0,95.514,0,213.333s95.518,213.333,213.333,213.333,c117.828,0,213.333-95.514,213.333-213.333S331.157,0,213.333,0z M174.199,322.918l-93.935-93.931l31.309-31.309l62.626,62.622,l140.894-140.898l31.309,31.309L174.199,322.918z"/>
      </g>
      <g class="sprite" id="help-desk">
         <circle cx="67" cy="116" r="12"/>
         <circle cx="111" cy="116" r="12"/>
         <path d="M110 146c0 8-9 15-20 15s-19-7-20-15c6 3 13 4 20 4 8 0 15-1 20-4zm25-47c5 1 8 2 7-3-4-28-26-49-52-49-29 0-53 27-53 60v5c2-3 3-5 5-7 3-2 5-3 12-3 15 1 43-9 58-30 2 21 12 22 23 27z"/>
         <path d="M82 177c-22-3-40-20-49-42-1-6-5-6-8-10-7-9-6-24 0-31 3-5 4-3 9-15 9-24 31-41 56-41s47 17 56 41c5 12 6 10 9 15 6 7 7 22 0 31-2 2-4 3-6 5-2 3-6 0-5-5 2-5 3-11 3-18 0-35-26-64-57-64s-57 30-57 64c0 35 22 60 50 64 0-1 1-1 3-1s4 2 4 4c0 3-2 4-4 4s-3 0-4-1z"/>
      </g>
      <g class="sprite" id="delete-warning">
         <circle fill="#d32f2f" transform="matrix(-0.297405 0.297405 -0.297405 -0.297405 108 108)" r="257"/>
         <rect fill="#FEFEFE" transform="matrix(0.297405 0.297405 -0.297405 0.297405 71.0891 50.9202)" width="316.036" height="67.8161" rx="16" ry="16"/>
         <rect fill="#FEFEFE" transform="matrix(-0.297405 0.297405 -0.297405 -0.297405 165.08 71.0891)" width="316.036" height="67.8161" rx="16" ry="16"/>
      </g>
      <g class="sprite" id="search">
         <path fill="black" d="M348.55 290.33l112.54 112.54c6.5,6.5 6.5,17.14 0,23.64l-34.65 34.65c-6.5,6.5 -17.13,6.5 -23.63,0l-112.54 -112.55c-6.5,-6.5 -6.5,-17.13 0,-23.63l0 0 -42.94 -42.94c-50.21,34.03 -119.08,28.81 -163.56,-15.67 -50.4,-50.41 -50.4,-132.13 0,-182.53 50.41,-50.41 132.13,-50.41 182.54,0 44.48,44.48 49.69,113.34 15.67,163.56l42.93 42.93 0 0c6.5,-6.5 17.14,-6.5 23.64,0z"/>
         <path fill="white" stroke="black" stroke-width="0.18" stroke-miterlimit="2.61313" d="M233.35 116.79c32.2,32.21 32.2,84.42 0,116.62 -32.21,32.21 -84.42,32.21 -116.62,0 -32.2,-32.2 -32.2,-84.41 0,-116.62 32.2,-32.2 84.41,-32.2 116.62,0z"/>
      </g>
   </defs>
</svg>